<svg width="354" height="256" viewBox="0 0 354 256" fill="none" xmlns="http://www.w3.org/2000/svg">
<g clip-path="url(#clip0_840_2643)">
<path d="M0 95C0 66.7157 0 52.5736 8.7868 43.7868C17.5736 35 31.7157 35 60 35H294C322.284 35 336.426 35 345.213 43.7868C354 52.5736 354 66.7157 354 95V196C354 224.284 354 238.426 345.213 247.213C336.426 256 322.284 256 294 256H60C31.7157 256 17.5736 256 8.7868 247.213C0 238.426 0 224.284 0 196V95Z" fill="#9C9C9C"/>
<path d="M4 98C4 69.7157 4 55.5736 12.7868 46.7868C21.5736 38 35.7157 38 64 38H291C319.284 38 333.426 38 342.213 46.7868C351 55.5736 351 69.7157 351 98V192C351 220.284 351 234.426 342.213 243.213C333.426 252 319.284 252 291 252H64C35.7157 252 21.5736 252 12.7868 243.213C4 234.426 4 220.284 4 192V98Z" stroke="#CFCFCF" stroke-linecap="round" stroke-dasharray="2 2"/>
<g clip-path="url(#clip1_840_2643)">
<rect width="314" height="165" rx="18.1603" transform="matrix(0.970394 -0.241529 -0.241529 -0.970394 47.8523 235.955)" fill="#111111"/>
<g clip-path="url(#clip2_840_2643)">
<path d="M265.388 -39.1129C275.534 -41.6382 295.607 -44.2121 302.028 -18.4152C308.468 7.4603 289.511 14.5172 279.365 17.0425L267.175 20.0767C257.029 22.6019 236.976 25.2545 230.536 -0.621021C224.115 -26.4179 243.052 -33.5535 253.198 -36.0787L265.388 -39.1129ZM279.951 1.94636C287.895 -0.0307756 288.158 -7.36263 286.376 -14.5197C284.615 -21.5981 280.945 -27.9512 273.002 -25.9741L252.632 -20.904C244.688 -18.9268 244.425 -11.595 246.187 -4.51656C247.968 2.6405 251.637 8.99357 259.581 7.01644L279.951 1.94636Z" fill="#40FF00"/>
<path d="M280.07 19.8739C290.216 17.3486 310.288 14.7747 316.709 40.5716C323.15 66.4471 304.193 73.504 294.047 76.0293L281.856 79.0635C271.711 81.5888 251.658 84.2413 245.217 58.3658C238.796 32.5689 257.734 25.4333 267.879 22.9081L280.07 19.8739ZM294.633 60.9332C302.576 58.956 302.839 51.6242 301.058 44.4671C299.296 37.3887 295.627 31.0356 287.683 33.0128L267.313 38.0828C259.37 40.06 259.107 47.3918 260.868 54.4703C262.65 61.6273 266.319 67.9804 274.263 66.0033L294.633 60.9332Z" fill="white"/>
<path d="M230.795 22.5606C233.869 34.9085 228.377 41.7042 221.434 45.6874L242.377 57.012L222.007 62.0821L203.697 51.6055L183.957 56.519L187.48 70.6758L172.537 74.3952L158.56 18.2397L198.749 8.23662C208.895 5.71137 225.96 3.13432 230.795 22.5606ZM177.027 28.6772L180.452 42.4408L206.957 35.8438C214.901 33.8667 216.241 30.8605 215.144 26.4562C214.048 22.0518 211.475 20.1031 203.531 22.0802L177.027 28.6772Z" fill="white"/>
<path d="M89.5883 35.4067L150.699 20.1965L154.163 34.1174L107.918 45.6278L109.856 53.4141L136.246 46.8456L139.515 59.98L113.125 66.5485L114.965 73.9415L161.211 62.431L164.676 76.3519L103.565 91.5622L89.5883 35.4067Z" fill="white"/>
<path d="M81.7399 37.3601L85.518 52.5394L45.8886 90.9673L92.2128 79.4373L95.7169 93.5155L24.2249 111.31L20.4468 96.1304L60.0172 57.8007L14.558 69.1154L11.0344 54.9585L81.7399 37.3601Z" fill="white"/>
</g>
<rect width="40.3562" height="30.7476" rx="4.70823" transform="matrix(0.970394 -0.241529 -0.241529 -0.970394 64.5845 181.568)" fill="#9F9F9F"/>
<path d="M62.9119 172.237L73.4773 169.607C74.7389 169.293 75.5071 168.016 75.1931 166.754L73.9722 161.849M70.7663 148.968L72.1827 154.659M72.1827 154.659L73.9722 161.849M72.1827 154.659L59.3328 157.857M73.9722 161.849L61.1223 165.047" stroke="url(#paint0_linear_840_2643)" stroke-width="0.588528"/>
<path d="M100.85 162.794L88.6117 165.84M88.6117 165.84L86.8221 158.65M88.6117 165.84L90.7439 174.407M83.6162 145.77L85.0326 151.461M85.0326 151.461L86.8221 158.65M85.0326 151.461L97.2706 148.415M86.8221 158.65L99.0601 155.604" stroke="url(#paint1_linear_840_2643)" stroke-width="0.588528"/>
</g>
<g filter="url(#filter0_iii_840_2643)">
<path d="M115.542 118H40C21.1438 118 11.7157 118 5.85786 123.858C0 129.716 0 139.144 0 158V216C0 234.857 0 244.285 5.85786 250.143C11.7157 256 21.1438 256 40 256H313C331.856 256 341.284 256 347.142 250.143C353 244.285 353 234.857 353 216V158C353 139.144 353 129.716 347.142 123.858C341.284 118 331.856 118 313 118H234.968C226.254 118 221.897 118 218.041 119.702C217.893 119.767 217.747 119.834 217.601 119.902C213.787 121.696 210.928 124.984 205.21 131.559C192.216 146.502 185.719 153.974 177.213 154.399C176.902 154.415 176.59 154.423 176.278 154.424C167.762 154.451 160.877 147.334 147.109 133.102L144.291 130.189L144.291 130.189C138.477 124.179 135.569 121.173 131.827 119.587C128.085 118 123.904 118 115.542 118Z" fill="#D9D9D9"/>
</g>
<g filter="url(#filter1_i_840_2643)">
<path d="M112.648 121.435L43.1587 121.159C24.2342 121.084 14.7719 121.047 8.88595 126.909C3 132.772 3 142.234 3 161.159V213C3 231.856 3 241.284 8.85786 247.142C14.7157 253 24.1438 253 43 253H311C329.856 253 339.284 253 345.142 247.142C351 241.284 351 231.856 351 213V162C351 143.144 351 133.716 345.142 127.858C339.284 122 329.856 122 311 122H238.086C229.662 122 225.45 122 221.687 123.608C217.923 125.215 215.011 128.258 209.187 134.344L204.621 139.115C191.384 152.947 184.765 159.863 176.384 159.978C168.002 160.092 161.198 153.359 147.588 139.892L140.624 133.001C134.887 127.325 132.018 124.486 128.386 122.985C124.754 121.483 120.719 121.467 112.648 121.435Z" fill="#B9B9B9"/>
</g>
<path d="M112.648 121.435L43.1587 121.159C24.2342 121.084 14.7719 121.047 8.88595 126.909C3 132.772 3 142.234 3 161.159V213C3 231.856 3 241.284 8.85786 247.142C14.7157 253 24.1438 253 43 253H311C329.856 253 339.284 253 345.142 247.142C351 241.284 351 231.856 351 213V162C351 143.144 351 133.716 345.142 127.858C339.284 122 329.856 122 311 122H238.086C229.662 122 225.45 122 221.687 123.608C217.923 125.215 215.011 128.258 209.187 134.344L204.621 139.115C191.384 152.947 184.765 159.863 176.384 159.978C168.002 160.092 161.198 153.359 147.588 139.892L140.624 133.001C134.887 127.325 132.018 124.486 128.386 122.985C124.754 121.483 120.719 121.467 112.648 121.435Z" stroke="#CFCFCF" stroke-linecap="round" stroke-dasharray="2 2"/>
</g>
<defs>
<filter id="filter0_iii_840_2643" x="-3" y="114" width="358" height="142" filterUnits="userSpaceOnUse" color-interpolation-filters="sRGB">
<feFlood flood-opacity="0" result="BackgroundImageFix"/>
<feBlend mode="normal" in="SourceGraphic" in2="BackgroundImageFix" result="shape"/>
<feColorMatrix in="SourceAlpha" type="matrix" values="0 0 0 0 0 0 0 0 0 0 0 0 0 0 0 0 0 0 127 0" result="hardAlpha"/>
<feOffset dy="-4"/>
<feGaussianBlur stdDeviation="9.95"/>
<feComposite in2="hardAlpha" operator="arithmetic" k2="-1" k3="1"/>
<feColorMatrix type="matrix" values="0 0 0 0 0 0 0 0 0 0 0 0 0 0 0 0 0 0 0.25 0"/>
<feBlend mode="normal" in2="shape" result="effect1_innerShadow_840_2643"/>
<feColorMatrix in="SourceAlpha" type="matrix" values="0 0 0 0 0 0 0 0 0 0 0 0 0 0 0 0 0 0 127 0" result="hardAlpha"/>
<feOffset dx="-3"/>
<feGaussianBlur stdDeviation="9.95"/>
<feComposite in2="hardAlpha" operator="arithmetic" k2="-1" k3="1"/>
<feColorMatrix type="matrix" values="0 0 0 0 0 0 0 0 0 0 0 0 0 0 0 0 0 0 0.25 0"/>
<feBlend mode="normal" in2="effect1_innerShadow_840_2643" result="effect2_innerShadow_840_2643"/>
<feColorMatrix in="SourceAlpha" type="matrix" values="0 0 0 0 0 0 0 0 0 0 0 0 0 0 0 0 0 0 127 0" result="hardAlpha"/>
<feOffset dx="2"/>
<feGaussianBlur stdDeviation="9.95"/>
<feComposite in2="hardAlpha" operator="arithmetic" k2="-1" k3="1"/>
<feColorMatrix type="matrix" values="0 0 0 0 0 0 0 0 0 0 0 0 0 0 0 0 0 0 0.25 0"/>
<feBlend mode="normal" in2="effect2_innerShadow_840_2643" result="effect3_innerShadow_840_2643"/>
</filter>
<filter id="filter1_i_840_2643" x="2.5" y="120.644" width="349" height="132.856" filterUnits="userSpaceOnUse" color-interpolation-filters="sRGB">
<feFlood flood-opacity="0" result="BackgroundImageFix"/>
<feBlend mode="normal" in="SourceGraphic" in2="BackgroundImageFix" result="shape"/>
<feColorMatrix in="SourceAlpha" type="matrix" values="0 0 0 0 0 0 0 0 0 0 0 0 0 0 0 0 0 0 127 0" result="hardAlpha"/>
<feOffset/>
<feGaussianBlur stdDeviation="8"/>
<feComposite in2="hardAlpha" operator="arithmetic" k2="-1" k3="1"/>
<feColorMatrix type="matrix" values="0 0 0 0 0 0 0 0 0 0 0 0 0 0 0 0 0 0 0.25 0"/>
<feBlend mode="normal" in2="shape" result="effect1_innerShadow_840_2643"/>
</filter>
<linearGradient id="paint0_linear_840_2643" x1="69.6977" y1="149.897" x2="51.8573" y2="161.958" gradientUnits="userSpaceOnUse">
<stop stop-color="#C7CEE0"/>
<stop offset="0.494636" stop-color="#F8FEFF"/>
<stop offset="1" stop-color="#696F7F"/>
</linearGradient>
<linearGradient id="paint1_linear_840_2643" x1="83.8939" y1="146.363" x2="101.773" y2="147.683" gradientUnits="userSpaceOnUse">
<stop stop-color="#C7CEE0"/>
<stop offset="0.653286" stop-color="#F8FEFF"/>
<stop offset="1" stop-color="#696F7F"/>
</linearGradient>
<clipPath id="clip0_840_2643">
<rect width="354" height="256" rx="20" fill="white"/>
</clipPath>
<clipPath id="clip1_840_2643">
<rect width="314" height="165" rx="18.1603" transform="matrix(0.970394 -0.241529 -0.241529 -0.970394 47.8523 235.955)" fill="white"/>
</clipPath>
<clipPath id="clip2_840_2643">
<rect width="300.91" height="57.8687" fill="white" transform="translate(10.2478 55.1543) rotate(-13.9768)"/>
</clipPath>
</defs>
</svg>
