<svg width="355" height="228" viewBox="0 0 355 228" fill="none" xmlns="http://www.w3.org/2000/svg">
<g clip-path="url(#clip0_632_4233)">
<rect x="0.9375" width="354" height="227.653" rx="20.4887" fill="#111111"/>
<g clip-path="url(#clip1_632_4233)">
<path d="M313.924 150.719C325.72 150.719 348.397 153.371 348.397 183.363C348.397 213.447 325.72 216.007 313.924 216.007H299.751C287.955 216.007 265.278 213.447 265.278 183.363C265.278 153.371 287.955 150.719 299.751 150.719H313.924ZM318.679 199.639C327.914 199.639 330.2 191.684 330.2 183.363C330.2 175.133 327.914 167.178 318.679 167.178H294.996C285.76 167.178 283.474 175.133 283.474 183.363C283.474 191.684 285.76 199.639 294.996 199.639H318.679Z" fill="#40FF00"/>
<path d="M313.924 219.299C325.72 219.299 348.397 221.951 348.397 251.943C348.397 282.027 325.72 284.587 313.924 284.587H299.751C287.955 284.587 265.278 282.027 265.278 251.943C265.278 221.951 287.955 219.299 299.751 219.299H313.924ZM318.679 268.219C327.914 268.219 330.2 260.264 330.2 251.943C330.2 243.713 327.914 235.758 318.679 235.758H294.996C285.76 235.758 283.474 243.713 283.474 251.943C283.474 260.264 285.76 268.219 294.996 268.219H318.679Z" fill="white"/>
<path d="M259.245 208.813C259.245 223.169 251.381 229.113 242.695 231.582L262.537 249.687H238.854L221.663 233.228H198.712V249.687H181.338V184.398H228.064C239.86 184.398 259.245 186.227 259.245 208.813ZM198.712 200.858V216.86H229.527C238.763 216.86 241.049 213.934 241.049 208.813C241.049 203.692 238.763 200.858 229.527 200.858H198.712Z" fill="white"/>
<path d="M101.149 184.398H172.199V200.583H118.432V209.636H149.114V224.907H118.432V233.502H172.199V249.687H101.149L101.149 184.398Z" fill="white"/>
<path d="M92.0245 184.398V202.046L38.1662 233.319H92.0245V249.687H8.90527L8.90527 232.039L62.6722 200.858H9.81968L9.81968 184.398H92.0245Z" fill="white"/>
</g>
<rect x="33.947" y="96.481" width="45.5305" height="34.6899" rx="5.3119" fill="#9F9F9F"/>
<path d="M34.6584 107.152H46.9422C48.409 107.152 49.5982 108.341 49.5982 109.808V115.511M49.5982 130.487V123.871M49.5982 123.871V115.511M49.5982 123.871H34.6584M49.5982 115.511H34.6584" stroke="url(#paint0_linear_632_4233)" stroke-width="0.663987"/>
<path d="M78.7661 107.152H64.5378M64.5378 107.152V115.511M64.5378 107.152V97.1924M64.5378 130.487V123.87M64.5378 123.87V115.511M64.5378 123.87H78.7661M64.5378 115.511H78.7661" stroke="url(#paint1_linear_632_4233)" stroke-width="0.663987"/>
</g>
<defs>
<linearGradient id="paint0_linear_632_4233" x1="48.1753" y1="129.762" x2="25.3567" y2="121.418" gradientUnits="userSpaceOnUse">
<stop stop-color="#C7CEE0"/>
<stop offset="0.494636" stop-color="#F8FEFF"/>
<stop offset="1" stop-color="#696F7F"/>
</linearGradient>
<linearGradient id="paint1_linear_632_4233" x1="64.6801" y1="129.761" x2="83.8946" y2="123.445" gradientUnits="userSpaceOnUse">
<stop stop-color="#C7CEE0"/>
<stop offset="0.653286" stop-color="#F8FEFF"/>
<stop offset="1" stop-color="#696F7F"/>
</linearGradient>
<clipPath id="clip0_632_4233">
<rect x="0.9375" width="354" height="227.653" rx="20.4887" fill="white"/>
</clipPath>
<clipPath id="clip1_632_4233">
<rect width="339.491" height="65.2884" fill="white" transform="translate(8.90527 184.398)"/>
</clipPath>
</defs>
</svg>
