<svg width="37" height="28" viewBox="0 0 37 28" fill="none" xmlns="http://www.w3.org/2000/svg">
<g clip-path="url(#clip0_11_69)">
<path d="M21.8123 -14.4443C26.8711 -14.4443 36.5966 -13.3071 36.5966 -0.444336C36.5966 12.4576 26.8711 13.5557 21.8123 13.5557H15.7338C10.675 13.5557 0.949524 12.4576 0.949524 -0.444336C0.949524 -13.3071 10.675 -14.4443 15.7338 -14.4443H21.8123ZM23.8515 6.53606C27.8123 6.53606 28.7927 3.12429 28.7927 -0.444336C28.7927 -3.97375 27.8123 -7.38551 23.8515 -7.38551H13.6946C9.73384 -7.38551 8.75345 -3.97375 8.75345 -0.444336C8.75345 3.12429 9.73384 6.53606 13.6946 6.53606H23.8515Z" fill="black"/>
<path d="M21.8123 14.9674C26.8711 14.9674 36.5966 16.1047 36.5966 28.9674C36.5966 41.8694 26.8711 42.9674 21.8123 42.9674H15.7338C10.675 42.9674 0.949524 41.8694 0.949524 28.9674C0.949524 16.1047 10.675 14.9674 15.7338 14.9674H21.8123ZM23.8515 35.9478C27.8123 35.9478 28.7927 32.536 28.7927 28.9674C28.7927 25.438 27.8123 22.0262 23.8515 22.0262H13.6946C9.73384 22.0262 8.75345 25.438 8.75345 28.9674C8.75345 32.536 9.73384 35.9478 13.6946 35.9478H23.8515Z" fill="black"/>
<path d="M21.8122 -14.4443C26.871 -14.4443 36.5965 -13.3071 36.5965 -0.444336C36.5965 12.4576 26.871 13.5557 21.8122 13.5557H15.7338C10.675 13.5557 0.949463 12.4576 0.949463 -0.444336C0.949463 -13.3071 10.675 -14.4443 15.7338 -14.4443H21.8122ZM23.8514 6.53606C27.8122 6.53606 28.7926 3.12429 28.7926 -0.444336C28.7926 -3.97375 27.8122 -7.38551 23.8514 -7.38551H13.6946C9.73378 -7.38551 8.75339 -3.97375 8.75339 -0.444336C8.75339 3.12429 9.73378 6.53606 13.6946 6.53606H23.8514Z" fill="black"/>
<path d="M21.8122 14.9673C26.871 14.9673 36.5965 16.1045 36.5965 28.9673C36.5965 41.8692 26.871 42.9673 21.8122 42.9673H15.7338C10.675 42.9673 0.949463 41.8692 0.949463 28.9673C0.949463 16.1045 10.675 14.9673 15.7338 14.9673H21.8122ZM23.8514 35.9477C27.8122 35.9477 28.7926 32.5359 28.7926 28.9673C28.7926 25.4379 27.8122 22.0261 23.8514 22.0261H13.6946C9.73378 22.0261 8.75339 25.4379 8.75339 28.9673C8.75339 32.5359 9.73378 35.9477 13.6946 35.9477H23.8514Z" fill="black"/>
</g>
<defs>
<clipPath id="clip0_11_69">
<rect width="37" height="28" fill="white"/>
</clipPath>
</defs>
</svg>
