<svg width="51" height="11" viewBox="0 0 51 11" fill="none" xmlns="http://www.w3.org/2000/svg">
<g clip-path="url(#clip0_192_832)">
<path d="M45.6325 -4.42261C47.3972 -4.42261 50.7899 -4.02589 50.7899 0.461153C50.7899 4.96187 47.3972 5.34491 45.6325 5.34491H43.5121C41.7474 5.34491 38.3547 4.96187 38.3547 0.461153C38.3547 -4.02589 41.7474 -4.42261 43.5121 -4.42261H45.6325ZM46.3439 2.89619C47.7255 2.89619 48.0675 1.70603 48.0675 0.461153C48.0675 -0.770047 47.7255 -1.96021 46.3439 -1.96021H42.8007C41.4191 -1.96021 41.0771 -0.770047 41.0771 0.461153C41.0771 1.70603 41.4191 2.89619 42.8007 2.89619H46.3439Z" fill="#40FF00"/>
<path d="M45.6325 5.8374C47.3972 5.8374 50.7899 6.23412 50.7899 10.7212C50.7899 15.2219 47.3972 15.6049 45.6325 15.6049H43.5121C41.7474 15.6049 38.3547 15.2219 38.3547 10.7212C38.3547 6.23412 41.7474 5.8374 43.5121 5.8374H45.6325ZM46.3439 13.1562C47.7255 13.1562 48.0675 11.966 48.0675 10.7212C48.0675 9.48996 47.7255 8.2998 46.3439 8.2998H42.8007C41.4191 8.2998 41.0771 9.48996 41.0771 10.7212C41.0771 11.966 41.4191 13.1562 42.8007 13.1562H46.3439Z" fill="white"/>
<path d="M37.4522 4.26877C37.4522 6.41653 36.2758 7.30573 34.9762 7.67509L37.9447 10.3837H34.4016L31.8298 7.92133H28.3961V10.3837H25.7969V0.616211H32.7874C34.5521 0.616211 37.4522 0.88981 37.4522 4.26877ZM28.3961 3.07861V5.47261H33.0062C34.3879 5.47261 34.7299 5.03485 34.7299 4.26877C34.7299 3.50269 34.3879 3.07861 33.0062 3.07861H28.3961Z" fill="white"/>
<path d="M13.8 0.616211H24.4294V3.03757H16.3856V4.39189H20.9758V6.67645H16.3856V7.96237H24.4294V10.3837H13.8V0.616211Z" fill="white"/>
<path d="M12.4351 0.616211V3.25645L4.3776 7.93501H12.4351V10.3837H0V7.74349L8.04384 3.07861H0.1368V0.616211H12.4351Z" fill="white"/>
</g>
<defs>
<clipPath id="clip0_192_832">
<rect width="50.7899" height="9.76752" fill="white" transform="translate(0 0.616211)"/>
</clipPath>
</defs>
</svg>
