<svg width="28" height="28" viewBox="0 0 28 28" fill="none" xmlns="http://www.w3.org/2000/svg">
<path d="M14.0002 2.33325C7.57183 2.33325 2.3335 7.57158 2.3335 13.9999C2.3335 20.4283 7.57183 25.6666 14.0002 25.6666C20.4285 25.6666 25.6668 20.4283 25.6668 13.9999C25.6668 7.57158 20.4285 2.33325 14.0002 2.33325ZM18.6668 14.8749H14.8752V18.6666C14.8752 19.1449 14.4785 19.5416 14.0002 19.5416C13.5218 19.5416 13.1252 19.1449 13.1252 18.6666V14.8749H9.3335C8.85516 14.8749 8.4585 14.4783 8.4585 13.9999C8.4585 13.5216 8.85516 13.1249 9.3335 13.1249H13.1252V9.33325C13.1252 8.85492 13.5218 8.45825 14.0002 8.45825C14.4785 8.45825 14.8752 8.85492 14.8752 9.33325V13.1249H18.6668C19.1452 13.1249 19.5418 13.5216 19.5418 13.9999C19.5418 14.4783 19.1452 14.8749 18.6668 14.8749Z" fill="#292D32"/>
</svg>
