<svg width="24" height="24" viewBox="0 0 24 24" fill="none" xmlns="http://www.w3.org/2000/svg">
<path fill-rule="evenodd" clip-rule="evenodd" d="M7.78779 3.81825C7.78779 3.36635 8.13947 3 8.57331 3H14.8574C15.2913 3 15.6429 3.36635 15.6429 3.81825C15.6429 4.27016 15.2913 4.6365 14.8574 4.6365H14.5956V9.05789C14.5956 10.1345 14.6039 10.5003 14.7021 10.829C14.7446 10.9712 14.7994 11.1092 14.8659 11.2411C15.0197 11.5458 15.2622 11.8107 15.993 12.5719L17.2866 13.9195C18.2583 14.9316 18.727 16.3545 18.5565 17.7748C18.3353 19.6182 16.831 21.0015 15.0476 21.0015H8.38318C6.59978 21.0015 5.09547 19.6182 4.87427 17.7748C4.70382 16.3545 5.17246 14.9316 6.14417 13.9195L7.43784 12.5719C8.1686 11.8107 8.41115 11.5458 8.56483 11.2411C8.63135 11.1092 8.68619 10.9712 8.72869 10.829C8.8269 10.5003 8.83515 10.1345 8.83515 9.05789V4.6365H8.57331C8.13947 4.6365 7.78779 4.27016 7.78779 3.81825ZM10.4061 4.6365H13.0245V9.17733C13.0242 10.0882 13.024 10.7196 13.202 11.3154C13.2729 11.5524 13.3643 11.7823 13.4751 12.0021C13.7537 12.5545 14.1824 13.0007 14.801 13.6446L15.0887 13.9443L14.6743 13.8364C13.3818 13.4999 12.0164 13.656 10.8247 14.2767C10.036 14.6874 9.11634 14.7273 8.29755 14.3864L8.02611 14.2734L8.62984 13.6446C9.24836 13.0007 9.67707 12.5545 9.95567 12.0021C10.0665 11.7823 10.1579 11.5524 10.2287 11.3154C10.4068 10.7196 10.4066 10.0882 10.4062 9.17734L10.4061 4.6365ZM6.87955 15.5585C6.51019 16.1478 6.34779 16.8604 6.43317 17.5718C6.5561 18.5962 7.39209 19.365 8.38318 19.365H15.0476C16.0386 19.365 16.8746 18.5962 16.9976 17.5718C17.0592 17.0589 16.9919 16.5455 16.8113 16.078C16.7947 16.0748 16.7782 16.0711 16.7616 16.0669L14.2933 15.4241C13.3646 15.1822 12.3835 15.2944 11.5272 15.7403C10.3373 16.3601 8.94981 16.4204 7.71445 15.9061L6.87955 15.5585Z" fill="#2775CA"/>
</svg>
