<svg width="18" height="18" viewBox="0 0 18 18" fill="none" xmlns="http://www.w3.org/2000/svg">
<path d="M8.12924 14.5652H5.6359C5.10465 14.5652 4.71507 14.5439 4.38215 14.4944C2.02341 14.2323 1.56299 12.8298 1.56299 10.4923V6.9506C1.56299 4.6131 2.03049 3.20352 4.40341 2.94144C4.71507 2.89894 5.10465 2.87769 5.6359 2.87769H8.08674C8.37715 2.87769 8.61799 3.11852 8.61799 3.40894C8.61799 3.69935 8.37715 3.94019 8.08674 3.94019H5.6359C5.15424 3.94019 4.81424 3.96144 4.53799 3.99685C3.10007 4.15269 2.62549 4.60602 2.62549 6.9506V10.4923C2.62549 12.8369 3.10007 13.2831 4.51674 13.446C4.81424 13.4885 5.15424 13.5027 5.6359 13.5027H8.12924C8.41966 13.5027 8.66049 13.7435 8.66049 14.0339C8.66049 14.3244 8.41966 14.5652 8.12924 14.5652Z" fill="#A3A3A3"/>
<path d="M12.0107 14.5652H10.9624C10.672 14.5652 10.4312 14.3244 10.4312 14.0339C10.4312 13.7435 10.672 13.5027 10.9624 13.5027H12.0107C12.4924 13.5027 12.8324 13.4814 13.1087 13.446C14.5466 13.2902 15.0212 12.8369 15.0212 10.4923V6.9506C15.0212 4.60602 14.5466 4.15977 13.1299 3.99685C12.8324 3.95435 12.4924 3.94019 12.0107 3.94019H10.9624C10.672 3.94019 10.4312 3.69935 10.4312 3.40894C10.4312 3.11852 10.672 2.87769 10.9624 2.87769H12.0107C12.542 2.87769 12.9316 2.89894 13.2645 2.94852C15.6232 3.2106 16.0837 4.6131 16.0837 6.9506V10.4923C16.0837 12.8298 15.6162 14.2394 13.2432 14.5014C12.9316 14.5439 12.542 14.5652 12.0107 14.5652Z" fill="#A3A3A3"/>
<path d="M10.9482 16.336C10.6578 16.336 10.417 16.0952 10.417 15.8048V1.63812C10.417 1.34771 10.6578 1.10687 10.9482 1.10687C11.2387 1.10687 11.4795 1.34771 11.4795 1.63812V15.8048C11.4795 16.0952 11.2387 16.336 10.9482 16.336Z" fill="#A3A3A3"/>
<path d="M5.98975 11.7318C5.69933 11.7318 5.4585 11.491 5.4585 11.2006V6.24225C5.4585 5.95183 5.69933 5.711 5.98975 5.711C6.28016 5.711 6.521 5.95183 6.521 6.24225V11.2006C6.521 11.491 6.28016 11.7318 5.98975 11.7318Z" fill="#A3A3A3"/>
</svg>
