<svg width="32" height="32" viewBox="0 0 32 32" fill="none" xmlns="http://www.w3.org/2000/svg">
<path d="M29.3332 12.3333H2.6665C2.11984 12.3333 1.6665 11.8799 1.6665 11.3333C1.6665 10.7866 2.11984 10.3333 2.6665 10.3333H29.3332C29.8798 10.3333 30.3332 10.7866 30.3332 11.3333C30.3332 11.8799 29.8798 12.3333 29.3332 12.3333Z" fill="#888888"/>
<path d="M10.6667 23H8C7.45333 23 7 22.5467 7 22C7 21.4533 7.45333 21 8 21H10.6667C11.2133 21 11.6667 21.4533 11.6667 22C11.6667 22.5467 11.2133 23 10.6667 23Z" fill="#888888"/>
<path d="M19.3333 23H14C13.4533 23 13 22.5467 13 22C13 21.4533 13.4533 21 14 21H19.3333C19.88 21 20.3333 21.4533 20.3333 22C20.3333 22.5467 19.88 23 19.3333 23Z" fill="#888888"/>
<path d="M23.4132 28.3334H8.5865C3.27984 28.3334 1.6665 26.7334 1.6665 21.4801V10.5201C1.6665 5.26675 3.27984 3.66675 8.5865 3.66675H23.3998C28.7065 3.66675 30.3198 5.26675 30.3198 10.5201V21.4667C30.3332 26.7334 28.7198 28.3334 23.4132 28.3334ZM8.5865 5.66675C4.39984 5.66675 3.6665 6.38675 3.6665 10.5201V21.4667C3.6665 25.6001 4.39984 26.3201 8.5865 26.3201H23.3998C27.5865 26.3201 28.3198 25.6001 28.3198 21.4667V10.5201C28.3198 6.38675 27.5865 5.66675 23.3998 5.66675H8.5865Z" fill="#888888"/>
</svg>
