<svg width="32" height="32" viewBox="0 0 32 32" fill="none" xmlns="http://www.w3.org/2000/svg">
<path d="M18.0001 6.14654V10.0532C18.0001 10.9465 17.2801 11.6665 16.3867 11.6665H4.28008C3.37341 11.6665 2.66675 10.9199 2.66675 10.0265C2.68008 8.51987 3.28008 7.14654 4.28008 6.14654C5.28008 5.14654 6.66675 4.5332 8.18675 4.5332H16.3867C17.2801 4.5332 18.0001 5.2532 18.0001 6.14654Z" fill="#898686"/>
<path d="M2.66675 15.2798V21.9465C2.66675 24.9998 5.13341 27.4665 8.18675 27.4665H23.8001C26.8534 27.4665 29.3334 24.9865 29.3334 21.9332V15.2798C29.3334 14.3865 28.6134 13.6665 27.7201 13.6665H4.28008C3.38675 13.6665 2.66675 14.3865 2.66675 15.2798ZM10.6667 22.9998H8.00008C7.45341 22.9998 7.00008 22.5465 7.00008 21.9998C7.00008 21.4532 7.45341 20.9998 8.00008 20.9998H10.6667C11.2134 20.9998 11.6667 21.4532 11.6667 21.9998C11.6667 22.5465 11.2134 22.9998 10.6667 22.9998ZM19.3334 22.9998H14.0001C13.4534 22.9998 13.0001 22.5465 13.0001 21.9998C13.0001 21.4532 13.4534 20.9998 14.0001 20.9998H19.3334C19.8801 20.9998 20.3334 21.4532 20.3334 21.9998C20.3334 22.5465 19.8801 22.9998 19.3334 22.9998Z" fill="#898686"/>
<path d="M26.6267 2.3335H22.7067C21.0133 2.3335 20 3.34683 20 5.04016V8.96016C20 10.6535 21.0133 11.6668 22.7067 11.6668H26.6267C28.32 11.6668 29.3333 10.6535 29.3333 8.96016V5.04016C29.3333 3.34683 28.32 2.3335 26.6267 2.3335ZM24.0133 9.76016C23.9733 9.80016 23.88 9.8535 23.8133 9.8535L22.4267 10.0535C22.3867 10.0668 22.3333 10.0668 22.2933 10.0668C22.0933 10.0668 21.92 10.0002 21.8 9.86683C21.64 9.70683 21.5733 9.48016 21.6133 9.24016L21.8133 7.8535C21.8267 7.78683 21.8667 7.6935 21.9067 7.6535L24.1733 5.38683C24.2133 5.48016 24.2533 5.58683 24.2933 5.6935C24.3467 5.80016 24.4 5.8935 24.4533 5.98683C24.4933 6.06683 24.5467 6.14683 24.6 6.20016C24.6533 6.28016 24.7067 6.36016 24.7467 6.40016C24.7733 6.44016 24.7867 6.4535 24.8 6.46683C24.92 6.6135 25.0533 6.74683 25.1733 6.84016C25.2 6.86683 25.2267 6.8935 25.24 6.8935C25.3067 6.94683 25.3867 7.0135 25.44 7.0535C25.52 7.10683 25.5867 7.16016 25.6667 7.20016C25.76 7.2535 25.8667 7.30683 25.9733 7.36016C26.08 7.4135 26.1867 7.4535 26.28 7.48016L24.0133 9.76016ZM27.2 6.5735L26.76 7.0135C26.7467 7.04016 26.7067 7.0535 26.6667 7.0535C26.6533 7.0535 26.64 7.0535 26.6267 7.0535C25.6667 6.7735 24.9067 6.0135 24.6267 5.0535C24.6133 5.00016 24.6267 4.94683 24.6667 4.90683L25.1067 4.46683C25.8267 3.74683 26.5067 3.76016 27.2133 4.46683C27.5733 4.82683 27.7467 5.1735 27.7467 5.52016C27.7333 5.86683 27.56 6.2135 27.2 6.5735Z" fill="#40FF00"/>
</svg>
