<svg width="32" height="32" viewBox="0 0 32 32" fill="none" xmlns="http://www.w3.org/2000/svg">
<path d="M15.92 2.94677L12.7067 10.4268H9.49335C8.96002 10.4268 8.44002 10.4668 7.93335 10.5734L9.26668 7.37343L9.32002 7.25343L9.40002 7.0401C9.44002 6.94677 9.46668 6.86677 9.50668 6.8001C11.0533 3.21343 12.7867 2.09343 15.92 2.94677Z" fill="#40FF00"/>
<path d="M24.9732 10.7865L24.9466 10.7732C24.1466 10.5465 23.3332 10.4265 22.5066 10.4265H14.1599L17.1599 3.4532L17.1999 3.35986C17.3866 3.42653 17.5866 3.51986 17.7866 3.58653L20.7332 4.82653C22.3732 5.50653 23.5199 6.2132 24.2266 7.06653C24.3466 7.22653 24.4532 7.3732 24.5599 7.54653C24.6799 7.7332 24.7732 7.91986 24.8266 8.11986C24.8799 8.23986 24.9199 8.34653 24.9466 8.46653C25.1466 9.14653 25.1599 9.91986 24.9732 10.7865Z" fill="#40FF00"/>
<path d="M24.3866 12.6934C23.7866 12.5201 23.1599 12.4268 22.5066 12.4268H9.49324C8.58657 12.4268 7.73324 12.6001 6.93324 12.9468C4.61324 13.9468 2.98657 16.2534 2.98657 18.9334V21.5334C2.98657 21.8534 3.01324 22.1601 3.05324 22.4801C3.34657 26.7201 5.61324 28.9868 9.85324 29.2668C10.1599 29.3068 10.4666 29.3334 10.7999 29.3334H21.1999C26.1332 29.3334 28.7332 26.9868 28.9866 22.3201C28.9999 22.0668 29.0132 21.8001 29.0132 21.5334V18.9334C29.0132 15.9868 27.0532 13.5068 24.3866 12.6934ZM19.3332 21.5868H16.9999V24.0001C16.9999 24.5468 16.5466 25.0001 15.9999 25.0001C15.4532 25.0001 14.9999 24.5468 14.9999 24.0001V21.5868H12.6666C12.1199 21.5868 11.6666 21.1468 11.6666 20.5868C11.6666 20.0401 12.1199 19.5868 12.6666 19.5868H14.9999V17.3334C14.9999 16.7868 15.4532 16.3334 15.9999 16.3334C16.5466 16.3334 16.9999 16.7868 16.9999 17.3334V19.5868H19.3332C19.8799 19.5868 20.3332 20.0401 20.3332 20.5868C20.3332 21.1468 19.8799 21.5868 19.3332 21.5868Z" fill="#898686"/>
</svg>
