<svg width="28" height="28" viewBox="0 0 28 28" fill="none" xmlns="http://www.w3.org/2000/svg">
<path d="M25.6668 8.80822C25.6668 9.57822 25.0368 10.2082 24.2668 10.2082H3.7335C2.9635 10.2082 2.3335 9.57822 2.3335 8.80822V8.79655C2.3335 6.12489 4.49183 3.96655 7.1635 3.96655H20.8252C23.4968 3.96655 25.6668 6.13655 25.6668 8.80822Z" fill="#292D32"/>
<path d="M2.3335 13.3583V19.2033C2.3335 21.8749 4.49183 24.0333 7.1635 24.0333H20.8252C23.4968 24.0333 25.6668 21.8633 25.6668 19.1916V13.3583C25.6668 12.5883 25.0368 11.9583 24.2668 11.9583H3.7335C2.9635 11.9583 2.3335 12.5883 2.3335 13.3583ZM9.3335 20.1249H7.00016C6.52183 20.1249 6.12516 19.7283 6.12516 19.2499C6.12516 18.7716 6.52183 18.3749 7.00016 18.3749H9.3335C9.81183 18.3749 10.2085 18.7716 10.2085 19.2499C10.2085 19.7283 9.81183 20.1249 9.3335 20.1249ZM16.9168 20.1249H12.2502C11.7718 20.1249 11.3752 19.7283 11.3752 19.2499C11.3752 18.7716 11.7718 18.3749 12.2502 18.3749H16.9168C17.3952 18.3749 17.7918 18.7716 17.7918 19.2499C17.7918 19.7283 17.3952 20.1249 16.9168 20.1249Z" fill="#292D32"/>
</svg>
