<svg width="18" height="19" viewBox="0 0 18 19" fill="none" xmlns="http://www.w3.org/2000/svg">
<path d="M3.43573 12.7604C2.72747 12.8271 2.10565 13.2028 1.77313 13.7653C1.40765 14.382 1.40765 15.1181 1.77313 15.7337C2.10565 16.2973 2.72747 16.673 3.43573 16.7397C5.28217 16.9129 7.14105 16.9997 8.99994 16.9997C10.8588 16.9997 12.7177 16.9129 14.5642 16.7397C15.2724 16.673 15.8942 16.2973 16.2268 15.7348C16.5922 15.1181 16.5922 14.382 16.2268 13.7664C15.8942 13.2028 15.2724 12.8271 14.5642 12.7604C14.4597 12.7506 14.3545 12.7476 14.2499 12.7384V7.75498C14.7807 7.70577 15.3109 7.65075 15.84 7.58661C16.1191 7.55292 16.3557 7.36579 16.4538 7.10211C16.5512 6.83844 16.4926 6.54218 16.3029 6.33527L16.007 6.013C14.1335 3.96735 11.7656 2.586 9.15962 2.01727C9.05415 1.99457 8.94575 1.99457 8.84028 2.01727C6.23432 2.586 3.8664 3.96735 1.99287 6.01263L1.69697 6.33527C1.50727 6.54218 1.44868 6.83844 1.54609 7.10211C1.64423 7.36578 1.88081 7.55292 2.15986 7.58661C2.68898 7.65075 3.21921 7.70577 3.74994 7.75498V12.7384C3.64544 12.7476 3.5402 12.7506 3.43573 12.7604ZM14.9362 14.5307C15.0219 14.6743 15.0219 14.8259 14.9355 14.9705C14.8491 15.117 14.6484 15.225 14.4235 15.2463C10.8244 15.5839 7.17401 15.5839 3.57635 15.2463C3.3515 15.225 3.15082 15.117 3.06366 14.9694C2.97797 14.8259 2.97797 14.6743 3.0644 14.5296C3.15082 14.3831 3.3515 14.2751 3.57636 14.2539C5.37592 14.085 7.18793 14.0004 8.99994 14.0004C10.812 14.0004 12.6247 14.085 14.4235 14.2539C14.6484 14.2751 14.8491 14.3831 14.9362 14.5307ZM12.7499 12.6331C11.7514 12.5703 10.7514 12.5307 9.74994 12.5181V7.98803C10.7507 7.97484 11.7511 7.93763 12.7499 7.87167V12.6331ZM8.99994 3.51911C10.9006 3.96296 12.6555 4.90229 14.1364 6.26093C10.7219 6.5788 7.27802 6.5788 3.86346 6.26093C5.34443 4.90229 7.09931 3.96296 8.99994 3.51911ZM5.24994 7.87167C6.24878 7.93763 7.24918 7.97484 8.24994 7.98803V12.5181C7.24845 12.5307 6.24851 12.5703 5.24994 12.6331V7.87167Z" fill="#898989"/>
</svg>
