<svg width="24" height="24" viewBox="0 0 24 24" fill="none" xmlns="http://www.w3.org/2000/svg">
<path d="M12.0002 22.75C6.07024 22.75 1.25024 17.93 1.25024 12C1.25024 6.07 6.07024 1.25 12.0002 1.25C17.9302 1.25 22.7502 6.07 22.7502 12C22.7502 17.93 17.9302 22.75 12.0002 22.75ZM12.0002 2.75C6.90024 2.75 2.75024 6.9 2.75024 12C2.75024 17.1 6.90024 21.25 12.0002 21.25C17.1002 21.25 21.2502 17.1 21.2502 12C21.2502 6.9 17.1002 2.75 12.0002 2.75Z" fill="#6A6A6A"/>
<path d="M9.16962 15.58C8.97962 15.58 8.78962 15.51 8.63962 15.36C8.34962 15.07 8.34962 14.59 8.63962 14.3L14.2996 8.63999C14.5896 8.34999 15.0696 8.34999 15.3596 8.63999C15.6496 8.92999 15.6496 9.40998 15.3596 9.69998L9.69962 15.36C9.55962 15.51 9.35962 15.58 9.16962 15.58Z" fill="#6A6A6A"/>
<path d="M14.8296 15.58C14.6396 15.58 14.4496 15.51 14.2996 15.36L8.63962 9.69998C8.34962 9.40998 8.34962 8.92999 8.63962 8.63999C8.92962 8.34999 9.40962 8.34999 9.69962 8.63999L15.3596 14.3C15.6496 14.59 15.6496 15.07 15.3596 15.36C15.2096 15.51 15.0196 15.58 14.8296 15.58Z" fill="#6A6A6A"/>
</svg>
