<svg width="16" height="16" viewBox="0 0 16 16" fill="none" xmlns="http://www.w3.org/2000/svg">
<path d="M11.0453 11.652C11.489 12.1809 11.4239 12.9831 10.8147 13.3079C10.3173 13.5731 9.78494 13.7668 9.23344 13.8835C8.55806 14.0263 7.99244 13.4536 7.99237 12.7633L7.99219 10.4416C7.99219 10.0946 8.28169 9.82337 8.60775 9.70474C8.93375 9.58605 9.32987 9.60762 9.55288 9.87343L11.0453 11.652Z" fill="#662D91"/>
<path d="M7.99186 12.7632C7.99186 13.4535 7.4263 14.0263 6.75086 13.8835C6.19936 13.7669 5.66704 13.5731 5.16961 13.308C4.56036 12.9833 4.49524 12.181 4.93892 11.6522L6.43117 9.87349C6.65417 9.60767 7.05024 9.58605 7.3763 9.70467C7.70236 9.8233 7.99186 10.0945 7.99186 10.4415V12.7632Z" fill="#C1272D"/>
<path d="M3.31422 8.83802C2.63435 8.9579 1.97216 8.50034 1.99547 7.8104C2.01452 7.24702 2.11286 6.68914 2.2876 6.15321C2.5016 5.4969 3.28041 5.29334 3.87822 5.63846L5.88903 6.79921C6.18953 6.97271 6.27966 7.35902 6.21941 7.70071C6.15916 8.0424 5.94241 8.37459 5.60066 8.43484L3.31422 8.83802Z" fill="#E86110"/>
<path d="M3.87827 5.63827C3.28039 5.29308 3.0672 4.51689 3.52858 4.00339C3.9053 3.58407 4.33923 3.21993 4.81758 2.9217C5.40339 2.55645 6.13077 2.90108 6.36695 3.54983L7.1612 5.73152C7.27989 6.05752 7.10058 6.41139 6.83477 6.63439C6.56902 6.85745 6.18939 6.97264 5.88895 6.79914L3.87827 5.63827Z" fill="#F5921E"/>
<path d="M9.61655 3.54966C9.85267 2.90091 10.58 2.55622 11.1659 2.92141C11.6443 3.21962 12.0782 3.58376 12.455 4.0031C12.9164 4.5166 12.7032 5.29278 12.1054 5.63797L10.0948 6.79897C9.7943 6.97253 9.41474 6.85735 9.14892 6.63435C8.88311 6.41135 8.7038 6.05747 8.82249 5.73147L9.61655 3.54966Z" fill="#39B54A"/>
<path d="M12.1057 5.63829C12.7035 5.2931 13.4824 5.49654 13.6964 6.15291C13.8712 6.68882 13.9696 7.24668 13.9887 7.81004C14.012 8.50004 13.3499 8.9576 12.67 8.83779L10.3835 8.43479C10.0417 8.37454 9.82498 8.04235 9.76473 7.70066C9.70448 7.35898 9.79448 6.97266 10.095 6.79916L12.1057 5.63829Z" fill="#00A99D"/>
<path d="M12.6697 8.83811C13.3496 8.95799 13.8153 9.61442 13.5574 10.2548C13.3469 10.7777 13.0636 11.2683 12.7161 11.7121C12.2905 12.2557 11.4891 12.1806 11.0453 11.6518L9.55282 9.8733C9.32976 9.60755 9.37726 9.21373 9.5507 8.91323C9.72413 8.61273 10.0415 8.37467 10.3832 8.43492L12.6697 8.83811Z" fill="#0071BC"/>
<path d="M4.93886 11.6519C4.49511 12.1808 3.69367 12.2559 3.26804 11.7124C2.92052 11.2686 2.63728 10.778 2.42667 10.2551C2.16867 9.6148 2.63442 8.9583 3.31429 8.83836L5.60073 8.43505C5.94242 8.3748 6.25973 8.6128 6.43323 8.9133C6.60673 9.2138 6.65423 9.60755 6.43123 9.87336L4.93886 11.6519Z" fill="#FF421D"/>
<path d="M6.36748 3.54975C6.13135 2.901 6.46698 2.16943 7.15048 2.07262C7.7086 1.99355 8.27509 1.99353 8.83323 2.07256C9.51679 2.16931 9.85241 2.90093 9.61635 3.54962L8.82241 5.73144C8.70379 6.0575 8.33898 6.21331 7.99198 6.21331C7.64504 6.21331 7.28023 6.05756 7.16154 5.73144L6.36748 3.54975Z" fill="#FDB62F"/>
</svg>
