<svg width="107" height="107" viewBox="0 0 107 107" fill="none" xmlns="http://www.w3.org/2000/svg">
<path d="M48.3959 7.29572C50.8756 3.75126 56.1244 3.75126 58.6041 7.29571L63.8062 14.7315C65.3084 16.8788 67.9939 17.8562 70.5249 17.1769L79.2896 14.8246C83.4675 13.7033 87.4883 17.0772 87.1095 21.3863L86.3149 30.4263C86.0854 33.0368 87.5144 35.5118 89.8899 36.6183L98.116 40.4502C102.037 42.2767 102.949 47.4457 99.8887 50.5033L93.4692 56.9175C91.6154 58.7698 91.1191 61.5842 92.2276 63.9588L96.0661 72.1819C97.8959 76.1016 95.2715 80.6472 90.962 81.0224L81.9214 81.8097C79.3107 82.037 77.1215 83.874 76.4442 86.4056L74.0991 95.1721C72.9812 99.3509 68.049 101.146 64.5065 98.6635L57.075 93.4554C54.9289 91.9514 52.0711 91.9514 49.925 93.4554L42.4935 98.6635C38.951 101.146 34.0188 99.3509 32.9009 95.1721L30.5558 86.4056C29.8785 83.874 27.6893 82.037 25.0786 81.8097L16.038 81.0224C11.7285 80.6472 9.10413 76.1016 10.9339 72.1819L14.7724 63.9589C15.8809 61.5842 15.3846 58.7698 13.5308 56.9175L7.11135 50.5033C4.05134 47.4457 4.96277 42.2767 8.88397 40.4502L17.1101 36.6183C19.4856 35.5118 20.9146 33.0368 20.6851 30.4263L19.8905 21.3863C19.5117 17.0772 23.5325 13.7033 27.7104 14.8246L36.4751 17.1769C39.0061 17.8562 41.6916 16.8788 43.1938 14.7315L48.3959 7.29572Z" fill="#367C68"/>
<path d="M56.4071 30.2345C43.7772 28.4434 32.0258 37.2758 30.2347 49.9056C28.4436 62.5355 37.276 74.2869 49.9058 76.078C62.5357 77.8691 74.2871 69.0368 76.0782 56.4069C77.8693 43.777 69.037 32.0256 56.4071 30.2345ZM64.8607 49.4381L50.021 60.5916C49.6546 60.867 49.193 60.9886 48.7346 60.9236C48.2762 60.8586 47.8667 60.6134 47.5913 60.247L42.0243 52.8402C41.4539 52.0812 41.6099 50.981 42.3689 50.4105C43.1279 49.8401 44.2282 49.9961 44.7986 50.7551L49.323 56.7748L62.7756 46.6638C63.5346 46.0933 64.6348 46.2494 65.2053 47.0084C65.7758 47.7674 65.623 48.8447 64.8607 49.4381Z" fill="#5BCBAB"/>
</svg>
