<svg width="36" height="36" viewBox="0 0 36 36" fill="none" xmlns="http://www.w3.org/2000/svg">
<g clip-path="url(#clip0_305_1170)">
<rect width="36" height="36" rx="18" fill="#D4D4D4"/>
<path d="M12.1666 27.3333C12.1666 26.0465 13.2131 25 14.4999 25H21.4999C22.7868 25 23.8333 26.0465 23.8333 27.3333V36.6666H26.1666V27.3333C26.1666 24.7601 24.0731 22.6666 21.4999 22.6666H14.4999C11.9267 22.6666 9.83325 24.7601 9.83325 27.3333V36.6666H12.1666V27.3333Z" fill="#9C9C9C"/>
<path d="M16.8333 26.1667C16.1891 26.1667 15.6666 26.6892 15.6666 27.3334C15.6666 27.9776 16.1891 28.5001 16.8333 28.5001H19.1666C19.8109 28.5001 20.3333 27.9776 20.3333 27.3334C20.3333 26.6892 19.8109 26.1667 19.1666 26.1667H16.8333ZM13.0479 18.899C12.5973 19.3598 12.6053 20.0981 13.0656 20.5493C13.2928 20.7715 13.5874 20.8821 13.8819 20.8821C14.1844 20.8821 14.4869 20.7647 14.7158 20.5317C15.6278 19.5992 16.9067 19.1058 18.2391 19.1765C19.4024 19.2403 20.4853 19.7229 21.288 20.5352C21.7415 20.9944 22.4797 20.9978 22.9378 20.5455C23.3964 20.0926 23.4009 19.3537 22.948 18.8957C21.7375 17.6698 20.1106 16.9424 18.3657 16.8467C16.3588 16.7371 14.4304 17.4879 13.0479 18.899Z" fill="#9C9C9C"/>
<path d="M11.4084 18.4085C11.7097 18.4085 12.0105 18.2928 12.2389 18.0609C13.8505 16.4283 16.1098 15.56 18.4157 15.6764C20.4438 15.7852 22.343 16.6328 23.7637 18.0638C24.2172 18.5207 24.9567 18.5241 25.4135 18.0695C25.871 17.6155 25.8732 16.8772 25.4192 16.4198C23.5906 14.5775 21.1474 13.4861 18.5378 13.3464C15.5596 13.196 12.6566 14.3165 10.5778 16.4226C10.1255 16.8812 10.1301 17.6194 10.5892 18.0723C10.8165 18.2968 11.1122 18.4085 11.4084 18.4085Z" fill="#9C9C9C"/>
</g>
<defs>
<clipPath id="clip0_305_1170">
<rect width="36" height="36" rx="18" fill="white"/>
</clipPath>
</defs>
</svg>
