<svg width="15" height="15" viewBox="0 0 15 15" fill="none" xmlns="http://www.w3.org/2000/svg">
<path d="M9.83366 8.02502V10.475C9.83366 12.5167 9.01699 13.3334 6.97533 13.3334H4.52533C2.48366 13.3334 1.66699 12.5167 1.66699 10.475V8.02502C1.66699 5.98335 2.48366 5.16669 4.52533 5.16669H6.97533C9.01699 5.16669 9.83366 5.98335 9.83366 8.02502Z" stroke="black" stroke-linecap="round" stroke-linejoin="round"/>
<path d="M13.3337 4.52502V6.97502C13.3337 9.01669 12.517 9.83335 10.4753 9.83335H9.83366V8.02502C9.83366 5.98335 9.01699 5.16669 6.97533 5.16669H5.16699V4.52502C5.16699 2.48335 5.98366 1.66669 8.02533 1.66669H10.4753C12.517 1.66669 13.3337 2.48335 13.3337 4.52502Z" stroke="black" stroke-linecap="round" stroke-linejoin="round"/>
</svg>
