<svg width="18" height="19" viewBox="0 0 18 19" fill="none" xmlns="http://www.w3.org/2000/svg">
<path d="M14.5359 4.49618C14.437 3.98788 14.247 3.51546 13.9712 3.09139C13.7522 2.75448 13.3054 2.64974 12.9597 2.85482L11.9794 3.4371L10.8518 2.83797C10.6314 2.72079 10.3684 2.72079 10.148 2.83797L8.99989 3.44736L7.85182 2.83798C7.63136 2.72079 7.36842 2.72079 7.14796 2.83798L6.02039 3.4371L5.04005 2.85483C4.69435 2.64975 4.24757 2.75448 4.02857 3.0914C3.75282 3.51547 3.56276 3.98788 3.46535 4.48886C2.84755 7.49106 2.84755 10.6654 3.46498 13.6661C3.73414 14.9874 4.59657 16.0501 5.71864 16.4412C6.7975 16.8119 7.90126 17.0001 8.99989 17.0001C10.0985 17.0001 11.2023 16.8119 12.2841 16.4405C13.4032 16.0501 14.2656 14.9874 14.5344 13.6676C14.8432 12.1661 14.9999 10.6222 14.9999 9.07821C14.9999 7.53427 14.8432 5.99032 14.5359 4.49618ZM13.0648 13.3673C12.9008 14.1722 12.4126 14.8072 11.7933 15.0233C9.95131 15.6561 8.04554 15.6554 6.20936 15.024C5.58717 14.8072 5.09901 14.1722 4.93458 13.3658C4.35743 10.5606 4.35743 7.59579 4.93604 4.78329C4.95032 4.71005 4.96754 4.63827 4.98768 4.56796L5.6172 4.94223C5.84169 5.07552 6.12038 5.08139 6.35182 4.95907L7.49989 4.3497L8.64796 4.95907C8.86842 5.07626 9.13136 5.07626 9.35182 4.95907L10.4999 4.3497L11.648 4.95907C11.8798 5.08212 12.1581 5.07626 12.3826 4.94223L13.0121 4.56869C13.0326 4.64046 13.0505 4.71517 13.0652 4.79061C13.3538 6.1932 13.4999 7.63608 13.4999 9.07821C13.4999 10.5204 13.3538 11.9632 13.0648 13.3673Z" fill="#898989"/>
<path d="M6.75 8.75H8.22143C8.63562 8.75 8.97143 8.41455 8.97143 8C8.97143 7.58545 8.63562 7.25 8.22143 7.25H6.75C6.33581 7.25 6 7.58545 6 8C6 8.41455 6.33581 8.75 6.75 8.75ZM9.75 9.5H6.75C6.33581 9.5 6 9.83545 6 10.25C6 10.6645 6.33581 11 6.75 11H9.75C10.1642 11 10.5 10.6645 10.5 10.25C10.5 9.83545 10.1642 9.5 9.75 9.5Z" fill="#898989"/>
</svg>
