<svg width="25" height="24" viewBox="0 0 25 24" fill="none" xmlns="http://www.w3.org/2000/svg">
<g clip-path="url(#clip0_197_587)">
<path d="M22.1668 12.7021L17.8017 13.8711L16.1191 12.9005V11.079L17.7824 10.1239L22.1667 11.2986C22.2548 11.3221 22.3434 11.3337 22.4311 11.3337C22.8815 11.3337 23.2936 11.033 23.4153 10.5774C23.5611 10.033 23.2383 9.4735 22.694 9.32781L20.2904 8.68381L22.5061 7.41171C22.9945 7.13121 23.1635 6.50768 22.883 6.01911C22.6015 5.53054 21.9792 5.36127 21.4906 5.64244L19.2703 6.91755L19.9142 4.51319C20.0599 3.96892 19.7376 3.40932 19.1929 3.26363C18.6519 3.12172 18.0901 3.44092 17.9443 3.98483L16.7744 8.35015L15.1006 9.31139L13.5139 8.39398V6.46903L16.7226 3.26042C17.1209 2.86189 17.1209 2.21639 16.7226 1.81781C16.3241 1.41934 15.6788 1.41934 15.2801 1.81781L13.5139 3.58392V1.02004C13.514 0.456759 13.0571 0 12.4938 0C11.9305 0 11.4737 0.456707 11.4737 1.02004V3.57128L9.72041 1.81781C9.32194 1.41934 8.67644 1.41934 8.27786 1.81781C7.87939 2.21634 7.87939 2.86184 8.27786 3.26042L11.4737 6.45623V8.40139L9.89905 9.30983L8.22527 8.34948L7.05623 3.98488C6.91059 3.44098 6.35145 3.12089 5.8076 3.26368C5.26328 3.40937 4.94025 3.96897 5.08609 4.51324L5.72989 6.91718L3.50971 5.64244C3.02026 5.36122 2.39724 5.53012 2.11716 6.01936C1.83681 6.50804 2.00587 7.13116 2.49439 7.41166L4.7099 8.68376L2.30632 9.32776C1.76195 9.47345 1.43901 10.0329 1.58481 10.5774C1.70682 11.0329 2.11882 11.3337 2.5692 11.3337C2.65692 11.3337 2.74551 11.3221 2.8339 11.2986L7.2187 10.1234L8.88021 11.0773L8.88192 12.9004L7.19881 13.8728L2.8339 12.702C2.29336 12.5601 1.73081 12.8797 1.58481 13.4234C1.43901 13.9676 1.76195 14.5273 2.30632 14.6722L4.70109 15.3145L2.49185 16.5898C2.00416 16.8717 1.83681 17.4951 2.11887 17.9828C2.30782 18.3111 2.6506 18.4928 3.00275 18.4928C3.17564 18.4928 3.35112 18.4498 3.51189 18.3557L5.73232 17.0744L5.08609 19.4875C4.94025 20.0327 5.26328 20.5906 5.8076 20.7371C5.89573 20.761 5.98427 20.7723 6.07204 20.7723C6.52222 20.7723 6.93421 20.4711 7.05623 20.0152L8.23108 15.6318L9.90206 14.6677L11.4737 15.5746V17.5447L8.27786 20.7406C7.87939 21.139 7.87939 21.7844 8.27786 22.1831C8.47712 22.3823 8.73768 22.4811 8.99911 22.4811C9.25966 22.4811 9.52115 22.3823 9.72041 22.1831L11.4737 20.4297V22.9801C11.4737 23.5444 11.9305 24.0002 12.4938 24.0002C13.0571 24.0002 13.514 23.5443 13.514 22.9801V20.417L15.2801 22.1831C15.4793 22.3823 15.7399 22.4811 16.0014 22.4811C16.2629 22.4811 16.5234 22.3823 16.7226 22.1831C17.1209 21.7845 17.1209 21.1391 16.7226 20.7406L13.514 17.5319V15.5824L15.0991 14.6676L16.7696 15.6317L17.9445 20.0151C18.0663 20.471 18.4783 20.7722 18.9284 20.7722C19.0159 20.7722 19.1047 20.7609 19.193 20.737C19.7377 20.5905 20.0599 20.0326 19.9143 19.4874L19.2673 17.0743L21.4886 18.3556C21.6494 18.4496 21.8248 18.4927 21.9978 18.4927C22.3499 18.4927 22.6926 18.311 22.8816 17.9827C23.1636 17.495 22.9964 16.8717 22.5086 16.5897L20.2994 15.3146L22.6941 14.6722C23.2385 14.5273 23.5613 13.9676 23.4154 13.4235C23.2704 12.8797 22.7102 12.5595 22.1668 12.7021ZM14.0789 12.9005L12.5001 13.8123L10.9225 12.9004L10.9208 11.0757L12.5001 10.1645L14.0789 11.0771V12.9005Z" fill="#7177F9"/>
</g>
<defs>
<clipPath id="clip0_197_587">
<rect width="24" height="24" fill="white" transform="translate(0.5)"/>
</clipPath>
</defs>
</svg>
