<svg width="18" height="18" viewBox="0 0 18 18" fill="none" xmlns="http://www.w3.org/2000/svg">
<g clip-path="url(#clip0_257_908)">
<path d="M6.3834 6.25871C6.54014 5.81315 6.84951 5.43745 7.25671 5.19813C7.66391 4.95881 8.14267 4.87133 8.60819 4.95118C9.07371 5.03103 9.49595 5.27306 9.80012 5.63439C10.1043 5.99573 10.2708 6.45306 10.2701 6.92537C10.2701 8.25871 8.27007 8.92537 8.27007 8.92537M8.3234 11.592H8.33007M14.9901 8.25871C14.9901 11.9406 12.0053 14.9254 8.3234 14.9254C4.64151 14.9254 1.65674 11.9406 1.65674 8.25871C1.65674 4.57681 4.64151 1.59204 8.3234 1.59204C12.0053 1.59204 14.9901 4.57681 14.9901 8.25871Z" stroke="#A3A3A3" stroke-width="1.33333" stroke-linecap="round" stroke-linejoin="round"/>
</g>
<defs>
<clipPath id="clip0_257_908">
<rect width="17.5124" height="17.5124" fill="white" transform="translate(0.323242 0.258728)"/>
</clipPath>
</defs>
</svg>
