<svg width="17" height="16" viewBox="0 0 17 16" fill="none" xmlns="http://www.w3.org/2000/svg">
<path d="M8.50675 15.16C8.08675 15.16 7.67341 15.02 7.34675 14.74L6.29341 13.84C6.18674 13.7467 5.92008 13.6533 5.78008 13.6533H4.61341C3.62674 13.6533 2.82674 12.8533 2.82674 11.8667V10.7267C2.82674 10.5867 2.73341 10.32 2.64674 10.22L1.74008 9.15332C1.19341 8.50665 1.19341 7.49332 1.74008 6.83999L2.64674 5.77332C2.73341 5.67332 2.82674 5.40665 2.82674 5.26665V4.13332C2.82674 3.14665 3.62674 2.34665 4.61341 2.34665H5.76675C5.90675 2.34665 6.16675 2.24665 6.28008 2.15332L7.33341 1.25332C7.98675 0.699985 9.00674 0.699985 9.66008 1.25332L10.7134 2.15332C10.8201 2.24665 11.0934 2.33998 11.2334 2.33998H12.3667C13.3534 2.33998 14.1534 3.13998 14.1534 4.12665V5.25998C14.1534 5.39998 14.2534 5.65998 14.3467 5.77332L15.2467 6.82665C15.8067 7.48665 15.8001 8.50665 15.2467 9.15332L14.3467 10.2067C14.2534 10.32 14.1601 10.58 14.1601 10.72V11.8533C14.1601 12.84 13.3601 13.64 12.3734 13.64H11.2401C11.1001 13.64 10.8401 13.74 10.7201 13.8333L9.66675 14.7333C9.34008 15.02 8.92008 15.16 8.50675 15.16ZM4.61341 3.34665C4.18008 3.34665 3.82674 3.69998 3.82674 4.13332V5.26665C3.82674 5.64665 3.65341 6.12665 3.40674 6.41998L2.50008 7.48665C2.27341 7.75998 2.27341 8.23999 2.50008 8.50665L3.40008 9.56665C3.64008 9.83999 3.82008 10.34 3.82008 10.72V11.86C3.82008 12.2933 4.17341 12.6467 4.60674 12.6467H5.76675C6.14008 12.6467 6.63341 12.8267 6.92675 13.0733L7.98674 13.98C8.26008 14.2133 8.74008 14.2133 9.01341 13.98L10.0667 13.08C10.3667 12.8267 10.8534 12.6533 11.2267 12.6533H12.3601C12.7934 12.6533 13.1467 12.3 13.1467 11.8667V10.7333C13.1467 10.36 13.3267 9.87332 13.5734 9.57332L14.4801 8.51332C14.7134 8.23999 14.7134 7.75998 14.4801 7.48665L13.5801 6.43332C13.3267 6.13332 13.1534 5.64665 13.1534 5.27332V4.13332C13.1534 3.69998 12.8001 3.34665 12.3667 3.34665H11.2334C10.8534 3.34665 10.3601 3.16665 10.0667 2.91998L9.00675 2.01332C8.73341 1.77998 8.26008 1.77998 7.98008 2.01332L6.93341 2.91998C6.63341 3.16665 6.14675 3.34665 5.76675 3.34665H4.61341Z" fill="#292D32"/>
<path d="M8.50016 11.2467C8.1335 11.2467 7.8335 10.9467 7.8335 10.58C7.8335 10.2133 8.12683 9.91333 8.50016 9.91333C8.86683 9.91333 9.16683 10.2133 9.16683 10.58C9.16683 10.9467 8.8735 11.2467 8.50016 11.2467Z" fill="#292D32"/>
<path d="M8.5 9.14665C8.22667 9.14665 8 8.91998 8 8.64665V5.41998C8 5.14665 8.22667 4.91998 8.5 4.91998C8.77333 4.91998 9 5.14665 9 5.41998V8.63998C9 8.91998 8.78 9.14665 8.5 9.14665Z" fill="#292D32"/>
</svg>
