<svg width="24" height="24" viewBox="0 0 24 24" fill="none" xmlns="http://www.w3.org/2000/svg">
<path d="M17.7 3.10002C16.8 3.30002 16.3 4.10002 16.4 5.00002L17 8.00002C17.1 8.40002 17.4 8.70002 17.8 8.80002C18.4 8.90002 18.9 8.60002 19 8.00002L19.6 5.00002V4.40002C19.4 3.60002 18.6 3.00002 17.7 3.10002ZM4 13.7C7.5 13.7 10.3 16.5 10.3 20C10.3 20.6 10.7 21 11.3 21C11.9 21 12.3 20.6 12.3 20C12.3 15.4 8.6 11.7 4 11.7C3.4 11.7 3 12.1 3 12.7C3 13.3 3.4 13.7 4 13.7Z" fill="#E99F00"/>
<path d="M4 9.40002C9.9 9.40002 14.6 14.2 14.6 20C14.6 20.6 15 21 15.6 21C16.2 21 16.6 20.6 16.6 20C16.6 13 11 7.40002 4 7.40002C3.4 7.40002 3 7.80002 3 8.40002C3 9.00002 3.4 9.40002 4 9.40002ZM4 18.1C5.1 18.1 5.9 19 5.9 20C5.9 20.6 6.3 21 6.9 21C7.5 21 7.9 20.6 7.9 20C7.9 17.8 6.1 16.1 4 16.1C3.4 16.1 3 16.5 3 17.1C3 17.7 3.4 18.1 4 18.1Z" fill="#E99F00"/>
<path d="M18 12C18.5523 12 19 11.5523 19 11C19 10.4477 18.5523 10 18 10C17.4477 10 17 10.4477 17 11C17 11.5523 17.4477 12 18 12Z" fill="#E99F00"/>
</svg>
