<svg width="24" height="24" viewBox="0 0 24 24" fill="none" xmlns="http://www.w3.org/2000/svg">
<path d="M4 13.7C7.5 13.7 10.3 16.5 10.3 20C10.3 20.6 10.7 21 11.3 21C11.9 21 12.3 20.6 12.3 20C12.3 15.4 8.6 11.7 4 11.7C3.4 11.7 3 12.1 3 12.7C3 13.3 3.4 13.7 4 13.7Z" fill="#C9252D"/>
<path d="M4 9.40002C9.9 9.40002 14.6 14.2 14.6 20C14.6 20.6 15 21 15.6 21C16.2 21 16.6 20.6 16.6 20C16.6 13 11 7.40002 4 7.40002C3.4 7.40002 3 7.80002 3 8.40002C3 9.00002 3.4 9.40002 4 9.40002ZM4 18.1C5.1 18.1 5.9 19 5.9 20C5.9 20.6 6.3 21 6.9 21C7.5 21 7.9 20.6 7.9 20C7.9 17.8 6.1 16.1 4 16.1C3.4 16.1 3 16.5 3 17.1C3 17.7 3.4 18.1 4 18.1ZM19.8 4.20002C19.4 3.80002 18.8 3.80002 18.4 4.20002L17 5.60002L15.6 4.20002C15.2 3.80002 14.6 3.80002 14.2 4.20002C13.8 4.60002 13.8 5.20002 14.2 5.60002L15.6 7.00002L14.2 8.40002C13.8 8.80002 13.8 9.40002 14.2 9.80002C14.4 10 14.7 10.1 14.9 10.1C15.1 10.1 15.4 10 15.6 9.80002L17 8.40002L18.4 9.80002C18.6 10 18.9 10.1 19.1 10.1C19.3 10.1 19.6 10 19.8 9.80002C20.2 9.40002 20.2 8.80002 19.8 8.40002L18.4 7.00002L19.8 5.60002C20.2 5.20002 20.2 4.60002 19.8 4.20002Z" fill="#C9252D"/>
</svg>
