<svg width="18" height="19" viewBox="0 0 18 19" fill="none" xmlns="http://www.w3.org/2000/svg">
<path d="M14.9897 12.2078V14.2078C14.9905 14.3935 14.9524 14.5773 14.878 14.7474C14.8037 14.9175 14.6946 15.0702 14.5578 15.1958C14.4209 15.3213 14.2594 15.4168 14.0835 15.4763C13.9077 15.5358 13.7213 15.5579 13.5364 15.5412C11.4849 15.3183 9.51437 14.6173 7.78303 13.4945C6.17225 12.4709 4.80659 11.1053 3.78304 9.49451C2.65635 7.75531 1.9552 5.77517 1.73637 3.71451C1.71971 3.53015 1.74162 3.34435 1.8007 3.16892C1.85979 2.9935 1.95475 2.8323 2.07955 2.69559C2.20434 2.55888 2.35624 2.44965 2.52556 2.37485C2.69489 2.30006 2.87793 2.26135 3.06304 2.26117H5.06304C5.38657 2.25799 5.70023 2.37256 5.94554 2.58353C6.19086 2.7945 6.35109 3.08747 6.39637 3.40784C6.48078 4.04788 6.63733 4.67632 6.86304 5.28117C6.95273 5.51979 6.97214 5.77912 6.91897 6.02843C6.8658 6.27774 6.74228 6.50658 6.56303 6.68784L5.71637 7.53451C6.66541 9.20354 8.04734 10.5855 9.71637 11.5345L10.563 10.6878C10.7443 10.5086 10.9731 10.3851 11.2224 10.3319C11.4718 10.2787 11.7311 10.2981 11.9697 10.3878C12.5746 10.6135 13.203 10.7701 13.843 10.8545C14.1669 10.9002 14.4626 11.0633 14.6741 11.3128C14.8855 11.5624 14.9978 11.8809 14.9897 12.2078Z" stroke="#A3A3A3" stroke-width="1.33333" stroke-linecap="round" stroke-linejoin="round"/>
</svg>
