<svg width="36" height="36" viewBox="0 0 36 36" fill="none" xmlns="http://www.w3.org/2000/svg">
<rect width="36" height="36" rx="18" fill="#E5E5E5"/>
<path d="M12 25H24C26.2 25 28 23.2 28 21V15C28 12.8 26.2 11 24 11L12 11C9.8 11 8 12.8 8 15L8 21C8 23.2 9.8 25 12 25ZM12 13L24 13C25.1 13 26 13.9 26 15L10 15C10 13.9 10.9 13 12 13ZM10 17L26 17V21C26 22.1 25.1 23 24 23H12C10.9 23 10 22.1 10 21L10 17Z" fill="#9C9C9C"/>
<path d="M20 22C20.5523 22 21 21.5523 21 21C21 20.4477 20.5523 20 20 20C19.4477 20 19 20.4477 19 21C19 21.5523 19.4477 22 20 22Z" fill="#9C9C9C"/>
<path d="M23 22C23.5523 22 24 21.5523 24 21C24 20.4477 23.5523 20 23 20C22.4477 20 22 20.4477 22 21C22 21.5523 22.4477 22 23 22Z" fill="#9C9C9C"/>
</svg>
