<svg width="32" height="32" viewBox="0 0 32 32" fill="none" xmlns="http://www.w3.org/2000/svg">
<path d="M24 5.33317H21V3.6665C21 3.11984 20.5467 2.6665 20 2.6665C19.4533 2.6665 19 3.11984 19 3.6665V28.3332C19 28.8798 19.4533 29.3332 20 29.3332C20.5467 29.3332 21 28.8798 21 28.3332V26.6665H24C26.9467 26.6665 29.3333 24.2798 29.3333 21.3332V10.6665C29.3333 7.71984 26.9467 5.33317 24 5.33317Z" fill="#40FF00"/>
<path d="M8.66658 5.3335C5.71992 5.3335 3.33325 7.72016 3.33325 10.6668V21.3335C3.33325 24.2802 5.71992 26.6668 8.66658 26.6668H15.3333C16.0666 26.6668 16.6666 26.0668 16.6666 25.3335V6.66683C16.6666 5.9335 16.0666 5.3335 15.3333 5.3335H8.66658ZM8.89325 16.5068C8.82659 16.6668 8.73325 16.8135 8.61325 16.9468C8.47992 17.0668 8.33325 17.1602 8.17325 17.2268C8.01325 17.2935 7.83992 17.3335 7.66658 17.3335C7.49325 17.3335 7.31992 17.2935 7.15992 17.2268C6.99992 17.1602 6.85325 17.0668 6.71992 16.9468C6.59992 16.8135 6.50659 16.6668 6.42659 16.5068C6.35992 16.3468 6.33325 16.1735 6.33325 16.0002C6.33325 15.6535 6.47992 15.3068 6.71992 15.0535C6.78659 15.0002 6.85325 14.9468 6.91992 14.8935C6.99992 14.8402 7.07992 14.8002 7.15992 14.7735C7.23992 14.7335 7.31992 14.7068 7.39992 14.6935C7.85325 14.6002 8.30658 14.7468 8.61325 15.0535C8.85325 15.3068 8.99992 15.6535 8.99992 16.0002C8.99992 16.1735 8.95992 16.3468 8.89325 16.5068ZM13.5599 16.5068C13.4933 16.6668 13.3999 16.8135 13.2799 16.9468C13.1466 17.0668 12.9999 17.1602 12.8399 17.2268C12.6799 17.2935 12.5066 17.3335 12.3333 17.3335C12.1599 17.3335 11.9866 17.2935 11.8266 17.2268C11.6666 17.1602 11.5199 17.0668 11.3866 16.9468C11.1333 16.6935 10.9999 16.3602 10.9999 16.0002C10.9999 15.8268 11.0399 15.6535 11.1066 15.4935C11.1733 15.3202 11.2666 15.1868 11.3866 15.0535C11.8799 14.5602 12.7733 14.5602 13.2799 15.0535C13.5199 15.3068 13.6666 15.6535 13.6666 16.0002C13.6666 16.1735 13.6266 16.3468 13.5599 16.5068Z" fill="#898686"/>
</svg>
