<svg width="18" height="19" viewBox="0 0 18 19" fill="none" xmlns="http://www.w3.org/2000/svg">
<path d="M4.98991 7.48757V5.48757C4.98991 4.60351 5.3411 3.75567 5.96622 3.13055C6.59134 2.50543 7.43919 2.15424 8.32324 2.15424C9.2073 2.15424 10.0551 2.50543 10.6803 3.13055C11.3054 3.75567 11.6566 4.60351 11.6566 5.48757V7.48757M8.98991 11.4876C8.98991 11.8558 8.69143 12.1542 8.32324 12.1542C7.95505 12.1542 7.65658 11.8558 7.65658 11.4876C7.65658 11.1194 7.95505 10.8209 8.32324 10.8209C8.69143 10.8209 8.98991 11.1194 8.98991 11.4876ZM3.65658 7.48757H12.9899C13.7263 7.48757 14.3232 8.08452 14.3232 8.8209V14.1542C14.3232 14.8906 13.7263 15.4876 12.9899 15.4876H3.65658C2.9202 15.4876 2.32324 14.8906 2.32324 14.1542V8.8209C2.32324 8.08452 2.9202 7.48757 3.65658 7.48757Z" stroke="#A3A3A3" stroke-width="1.33333" stroke-linecap="round" stroke-linejoin="round"/>
</svg>
