<svg width="16" height="16" viewBox="0 0 16 16" fill="none" xmlns="http://www.w3.org/2000/svg">
<rect y="0.00524902" width="16" height="16" rx="8" fill="white"/>
<path d="M7.99967 1.33862C4.31967 1.33862 1.33301 4.32529 1.33301 8.00529C1.33301 11.6853 4.31967 14.672 7.99967 14.672C11.6797 14.672 14.6663 11.6853 14.6663 8.00529C14.6663 4.32529 11.6797 1.33862 7.99967 1.33862ZM11.6863 5.02529L6.53967 10.172H8.55301C8.82634 10.172 9.05301 10.3986 9.05301 10.672C9.05301 10.9453 8.82634 11.172 8.55301 11.172H5.33301C5.05967 11.172 4.83301 10.9453 4.83301 10.672V7.45196C4.83301 7.17862 5.05967 6.95196 5.33301 6.95196C5.60634 6.95196 5.83301 7.17862 5.83301 7.45196V9.46529L10.9797 4.31862C11.0797 4.21862 11.2063 4.17196 11.333 4.17196C11.4597 4.17196 11.5863 4.21862 11.6863 4.31862C11.8797 4.51196 11.8797 4.83196 11.6863 5.02529Z" fill="#2FBA00"/>
</svg>
