<svg width="24" height="25" viewBox="0 0 24 25" fill="none" xmlns="http://www.w3.org/2000/svg">
<path d="M16.1401 3.91842L7.11012 6.91842C1.04012 8.94842 1.04012 12.2584 7.11012 14.2784L9.79012 15.1684L10.6801 17.8484C12.7001 23.9184 16.0201 23.9184 18.0401 17.8484L21.0501 8.82842C22.3901 4.77842 20.1901 2.56842 16.1401 3.91842ZM16.4601 9.29842L12.6601 13.1184C12.5101 13.2684 12.3201 13.3384 12.1301 13.3384C11.9401 13.3384 11.7501 13.2684 11.6001 13.1184C11.3101 12.8284 11.3101 12.3484 11.6001 12.0584L15.4001 8.23842C15.6901 7.94842 16.1701 7.94842 16.4601 8.23842C16.7501 8.52842 16.7501 9.00842 16.4601 9.29842Z" fill="#292D32"/>
</svg>
