<svg width="36" height="36" viewBox="0 0 36 36" fill="none" xmlns="http://www.w3.org/2000/svg">
<rect width="36" height="36" rx="18" fill="#E5E5E5"/>
<path d="M27.8218 20.1172C27.9307 19.4053 28 18.6948 28 18C28 16.541 27.7651 15.0752 27.3003 13.6387C26.8096 12.1416 25.4609 10.9854 23.7832 10.6231C19.998 9.79692 16 9.79792 12.2188 10.6221C10.5391 10.9854 9.1904 12.1416 8.6982 13.6426C8.2349 15.0752 8 16.541 8 18C8 19.459 8.2349 20.9248 8.6997 22.3613C9.1904 23.8584 10.5391 25.0146 12.2168 25.3769C14.0977 25.788 16.0093 25.9951 17.9175 25.9951C18.1443 25.9951 18.371 25.9833 18.5977 25.9773C18.9074 26.5925 19.3268 27.1429 19.8174 27.5712C19.855 27.6093 19.9287 27.6845 20.0381 27.7597C21.0005 28.5596 22.2266 29 23.5 29C24.8379 29 26.1172 28.5205 27.0894 27.6602C28.3037 26.623 29 25.1064 29 23.5C29 22.6387 28.7964 21.7842 28.4082 21.0215C28.2288 20.6736 28.0226 20.3622 27.8218 20.1172ZM12.6436 12.5762C14.396 12.1943 16.1982 12 18 12C19.8018 12 21.604 12.1943 23.3584 12.5771C24.3472 12.791 25.1294 13.4365 25.3984 14.2578C25.4781 14.5042 25.544 14.752 25.608 15H10.3918C10.4555 14.7532 10.5209 14.5066 10.6001 14.2617C10.8706 13.4365 11.6528 12.791 12.6436 12.5762ZM12.6416 23.4229C11.6528 23.209 10.8706 22.5635 10.6016 21.7422C10.2021 20.5078 10 19.249 10 18C10 17.6671 10.0166 17.3336 10.0452 17H25.9547C25.9833 17.3336 26 17.6671 26 18C26 18.1973 25.9946 18.3955 25.9844 18.5947C25.9499 18.5771 25.9131 18.565 25.8783 18.5482C25.8065 18.5134 25.733 18.484 25.6599 18.4524C25.5075 18.3868 25.3533 18.3275 25.1957 18.2761C25.1145 18.2496 25.0333 18.2245 24.9509 18.2019C24.7883 18.1573 24.6236 18.1222 24.457 18.0928C24.3818 18.0795 24.3078 18.0629 24.232 18.0528C23.9904 18.0206 23.7466 18 23.5 18C21.8926 18 20.3765 18.6963 19.3511 19.8975C18.48 20.8828 18 22.1621 18 23.5C18 23.667 18.0073 23.832 18.0215 23.9951C16.231 23.9941 14.4185 23.8115 12.6416 23.4229ZM25.7773 26.1514C24.5585 27.2276 22.5166 27.25 21.2807 26.1914C21.2558 26.1699 21.2294 26.1494 21.2026 26.1299C21.1997 26.1279 21.1958 26.124 21.1904 26.1192C20.7314 25.7159 20.3882 25.2042 20.188 24.6133C20.0635 24.2754 20 23.9014 20 23.5C20 22.6504 20.3018 21.8418 20.8604 21.209C21.9546 19.9278 23.9712 19.624 25.4161 20.5762C25.6344 20.7139 25.835 20.8848 26.0128 21.085C26.0406 21.1162 26.0709 21.1455 26.1031 21.1739L26.2144 21.3038C26.3672 21.4854 26.5074 21.6993 26.629 21.9337C26.8716 22.4111 27 22.9531 27 23.5C27 24.5205 26.5591 25.4834 25.7773 26.1514Z" fill="black"/>
<path d="M14 20H13C12.4478 20 12 20.4473 12 21C12 21.5527 12.4478 22 13 22H14C14.5522 22 15 21.5527 15 21C15 20.4473 14.5522 20 14 20ZM24.293 22.293L23 23.5859L22.707 23.2929C22.3164 22.9023 21.6836 22.9023 21.2929 23.2929C20.9022 23.6835 20.9023 24.3163 21.2929 24.707L22.2929 25.707C22.4883 25.9023 22.7441 26 23 26C23.2559 26 23.5117 25.9023 23.707 25.707L25.707 23.707C26.0976 23.3164 26.0976 22.6836 25.707 22.2929C25.3164 21.9022 24.6836 21.9023 24.293 22.293Z" fill="black"/>
</svg>
