<svg width="25" height="25" viewBox="0 0 25 25" fill="none" xmlns="http://www.w3.org/2000/svg">
<path d="M22.7593 14.7702C22.8682 14.0583 22.9375 13.3478 22.9375 12.653C22.9375 11.194 22.7026 9.72824 22.2378 8.29174C21.7471 6.79464 20.3984 5.63844 18.7207 5.27614C14.9355 4.44994 10.9375 4.45094 7.1563 5.27514C5.4766 5.63844 4.1279 6.79464 3.6357 8.29564C3.1724 9.72824 2.9375 11.194 2.9375 12.653C2.9375 14.112 3.1724 15.5778 3.6372 17.0143C4.1279 18.5114 5.4766 19.6676 7.1543 20.0299C9.0352 20.441 10.9468 20.6481 12.855 20.6481C13.0818 20.6481 13.3085 20.6363 13.5352 20.6303C13.8449 21.2455 14.2643 21.7959 14.7549 22.2242C14.7925 22.2623 14.8662 22.3375 14.9756 22.4127C15.938 23.2126 17.1641 23.653 18.4375 23.653C19.7754 23.653 21.0547 23.1735 22.0269 22.3132C23.2412 21.276 23.9375 19.7594 23.9375 18.153C23.9375 17.2917 23.7339 16.4372 23.3457 15.6745C23.1663 15.3266 22.9601 15.0152 22.7593 14.7702ZM7.5811 7.22924C9.3335 6.84734 11.1357 6.65304 12.9375 6.65304C14.7393 6.65304 16.5415 6.84734 18.2959 7.23014C19.2847 7.44404 20.0669 8.08954 20.3359 8.91084C20.4156 9.15724 20.4815 9.40504 20.5455 9.65304H5.3293C5.393 9.40624 5.4584 9.15964 5.5376 8.91474C5.8081 8.08954 6.5903 7.44404 7.5811 7.22924ZM7.5791 18.0759C6.5903 17.862 5.8081 17.2165 5.5391 16.3952C5.1396 15.1608 4.9375 13.902 4.9375 12.653C4.9375 12.3201 4.9541 11.9866 4.9827 11.653H20.8922C20.9208 11.9866 20.9375 12.3201 20.9375 12.653C20.9375 12.8503 20.9321 13.0485 20.9219 13.2477C20.8874 13.2301 20.8506 13.218 20.8158 13.2012C20.744 13.1664 20.6705 13.137 20.5974 13.1054C20.445 13.0398 20.2908 12.9805 20.1332 12.9291C20.052 12.9026 19.9708 12.8775 19.8884 12.8549C19.7258 12.8103 19.5611 12.7752 19.3945 12.7458C19.3193 12.7325 19.2453 12.7159 19.1695 12.7058C18.9279 12.6736 18.6841 12.653 18.4375 12.653C16.8301 12.653 15.314 13.3493 14.2886 14.5505C13.4175 15.5358 12.9375 16.8151 12.9375 18.153C12.9375 18.32 12.9448 18.485 12.959 18.6481C11.1685 18.6471 9.356 18.4645 7.5791 18.0759ZM20.7148 20.8044C19.496 21.8806 17.4541 21.903 16.2182 20.8444C16.1933 20.8229 16.1669 20.8024 16.1401 20.7829C16.1372 20.7809 16.1333 20.777 16.1279 20.7722C15.6689 20.3689 15.3257 19.8572 15.1255 19.2663C15.001 18.9284 14.9375 18.5544 14.9375 18.153C14.9375 17.3034 15.2393 16.4948 15.7979 15.862C16.8921 14.5808 18.9087 14.277 20.3536 15.2292C20.5719 15.3669 20.7725 15.5378 20.9503 15.738C20.9781 15.7692 21.0084 15.7985 21.0406 15.8269L21.1519 15.9568C21.3047 16.1384 21.4449 16.3523 21.5665 16.5867C21.8091 17.0641 21.9375 17.6061 21.9375 18.153C21.9375 19.1735 21.4966 20.1364 20.7148 20.8044Z" fill="#878787"/>
<path d="M8.9375 14.6528H7.9375C7.3853 14.6528 6.9375 15.1001 6.9375 15.6528C6.9375 16.2055 7.3853 16.6528 7.9375 16.6528H8.9375C9.4897 16.6528 9.9375 16.2055 9.9375 15.6528C9.9375 15.1001 9.4897 14.6528 8.9375 14.6528ZM19.2305 16.9458L17.9375 18.2387L17.6445 17.9457C17.2539 17.5551 16.6211 17.5551 16.2304 17.9457C15.8397 18.3363 15.8398 18.9691 16.2304 19.3598L17.2304 20.3598C17.4258 20.5551 17.6816 20.6528 17.9375 20.6528C18.1934 20.6528 18.4492 20.5551 18.6445 20.3598L20.6445 18.3598C21.0351 17.9692 21.0351 17.3364 20.6445 16.9457C20.2539 16.555 19.6211 16.5551 19.2305 16.9458Z" fill="#878787"/>
</svg>
