<svg width="18" height="19" viewBox="0 0 18 19" fill="none" xmlns="http://www.w3.org/2000/svg">
<path d="M17.2074 12.1688L17.2077 12.1663C17.33 11.6378 17.1737 11.0933 16.7902 10.7099C16.4072 10.3261 15.8626 10.1712 15.3302 10.2924L14.8585 10.4044C14.7702 10.4205 14.6886 10.4422 14.575 10.4737C13.1776 10.8131 11.8372 11.3288 10.5972 12.0029C10.0051 12.3183 9.67879 12.9522 9.76521 13.6176C9.852 14.2848 10.3321 14.8158 10.9924 14.9707L12.1445 15.2344L12.2271 15.2255C12.2329 15.2319 12.2349 15.2402 12.241 15.2465L12.5286 16.5066C12.6956 17.2387 13.3387 17.7499 14.0924 17.7499C14.6871 17.7499 15.2115 17.4339 15.4946 16.9069C16.2138 15.5783 16.75 14.1541 17.0876 12.6786L17.2074 12.1688ZM15.6264 12.3399C15.3181 13.6875 14.8299 14.9835 14.1744 16.195C14.1103 16.3144 14.01 16.2576 13.9913 16.173L13.6983 14.8902C13.6967 14.8829 13.6923 14.877 13.6905 14.8697L14.4051 14.1552C14.6981 13.8622 14.6981 13.3876 14.4051 13.0946C14.1121 12.8017 13.6375 12.8017 13.3446 13.0946L12.6296 13.8096C12.6209 13.8075 12.6139 13.8023 12.6052 13.8003L11.3315 13.5095C11.3088 13.5044 11.2616 13.4934 11.2528 13.4238C11.244 13.3579 11.2821 13.3374 11.3081 13.3235C12.4397 12.7086 13.658 12.2402 14.9295 11.9312C14.9369 11.9293 14.9951 11.9136 15.0028 11.9114C15.0442 11.9 15.0833 11.8879 15.1646 11.8722L15.7293 11.77C15.7531 11.7938 15.7491 11.8162 15.7465 11.8275L15.6264 12.3399Z" fill="#898989"/>
<path d="M2.28735 10.8392C2.2873 10.8486 2.29211 10.8579 2.29243 10.8673C2.29275 10.8775 2.28844 10.8868 2.28918 10.8971C2.328 11.4285 2.38184 11.9602 2.45178 12.4974C2.50671 12.8948 2.56934 13.2917 2.64661 13.6814C2.6803 13.8498 2.77075 14.0018 2.90296 14.1117C3.81775 14.8723 5.79236 15.385 8.18482 15.4831C8.19544 15.4835 8.20569 15.4839 8.21594 15.4839C8.61621 15.4839 8.94836 15.1682 8.96485 14.7646C8.98206 14.3508 8.66016 14.0015 8.24634 13.9846C6.19739 13.9004 4.73072 13.4998 4.06348 13.0987C4.02581 12.8876 3.99247 12.6755 3.96213 12.4643C5.02222 12.8949 6.52579 13.1688 8.21008 13.2346C8.21997 13.235 8.22986 13.2353 8.23975 13.2353C8.64038 13.2353 8.9729 12.9186 8.98865 12.5146C9.00513 12.1008 8.68287 11.7522 8.26868 11.7361C6.75073 11.6764 5.37049 11.4292 4.48682 11.0604C4.3857 11.0172 4.30174 10.9763 4.22553 10.9369C4.20392 10.9257 4.18401 10.9148 4.16419 10.904C4.10902 10.8739 4.05949 10.8449 4.01747 10.818C4.00667 10.8111 3.9938 10.8036 3.98378 10.7969C3.93494 10.7642 3.89452 10.734 3.86275 10.7076C3.85698 10.7029 3.85286 10.699 3.84764 10.6944C3.82183 10.672 3.80036 10.6517 3.78512 10.6353C3.78342 10.6335 3.78154 10.6315 3.77998 10.6298L3.77198 10.4239C3.76721 10.3258 3.76319 10.228 3.76026 10.1306C3.80677 10.1515 3.85438 10.172 3.90345 10.1921C5.13244 10.7056 6.99023 11 9 11C11.0098 11 12.8676 10.7056 14.0944 10.1932C14.9967 9.82007 15.5369 9.33081 15.7002 8.73938C15.7181 8.67456 15.7273 8.60718 15.7273 8.5398V8.53247C15.7273 8.51709 15.7269 8.50207 15.7258 8.48669L15.7126 8.16039C15.7126 8.14135 15.7119 8.12231 15.7108 8.1029C15.672 7.57153 15.6182 7.03979 15.5489 6.50841L15.548 6.50512L15.5482 6.50256C15.4933 6.10522 15.4307 5.70825 15.3534 5.3186C15.3197 5.15014 15.2292 4.99816 15.097 4.8883C14.0673 4.0321 11.7308 3.5 9 3.5C6.26917 3.5 3.93274 4.0321 2.90296 4.8883C2.77075 4.99817 2.6803 5.15015 2.64661 5.3186C2.56934 5.70826 2.50672 6.10522 2.45178 6.50256L2.45197 6.50513L2.45105 6.50842C2.38183 7.0398 2.328 7.57153 2.28919 8.10291C2.28809 8.12232 2.28736 8.14136 2.28736 8.1604L2.27422 8.50052L2.27344 8.50391C2.25769 8.83862 2.25 9.16528 2.25 9.5C2.25 9.83472 2.25769 10.1614 2.27417 10.5133L2.28735 10.8392ZM9 9.5C7.20813 9.5 5.5188 9.24145 4.47913 8.80676C4.37801 8.76492 4.29437 8.72478 4.21843 8.68596C4.19824 8.67561 4.17893 8.6655 4.16039 8.65543C4.10019 8.62283 4.04622 8.59138 4.00177 8.56236C3.99577 8.55847 3.9878 8.55403 3.98204 8.55018C3.93383 8.51791 3.89643 8.48899 3.86517 8.46289C3.85574 8.45502 3.84741 8.4477 3.83936 8.44051C3.81857 8.42183 3.80054 8.40462 3.78776 8.39084C3.7852 8.38809 3.78158 8.38462 3.77934 8.3821L3.78406 8.26221C3.78882 8.22669 3.79102 8.19116 3.79065 8.15527C3.79065 8.15125 3.79065 8.14722 3.79065 8.14319C3.79651 8.06262 3.8031 7.98206 3.80969 7.90149C3.84046 7.91504 3.87158 7.92858 3.90344 7.94214C5.13244 8.45556 6.99023 8.75 9 8.75C11.0098 8.75 12.8676 8.45556 14.1017 7.93994C14.1313 7.92712 14.161 7.91431 14.1903 7.90149C14.1969 7.98205 14.2035 8.06262 14.2094 8.14319C14.2094 8.14722 14.2094 8.15125 14.2094 8.15527C14.209 8.19116 14.2112 8.22668 14.2159 8.26221L14.2207 8.37972C14.2184 8.38233 14.2153 8.38544 14.2127 8.38823C14.1993 8.40301 14.1806 8.42114 14.1588 8.44087C14.1515 8.44746 14.1447 8.45373 14.1363 8.46078C14.105 8.48729 14.0664 8.51695 14.0182 8.54941C14.01 8.55495 13.999 8.56117 13.9902 8.5669C13.9473 8.59473 13.8963 8.62452 13.8393 8.65547C13.8201 8.66591 13.8003 8.67639 13.7793 8.68715C13.7034 8.72597 13.6197 8.76607 13.5187 8.80786C12.4812 9.24145 10.7919 9.5 9 9.5ZM9 5C11.3199 5 13.155 5.43359 13.9365 5.90161C13.9606 6.03523 13.9825 6.16995 14.0037 6.30504C13.97 6.32715 13.927 6.3515 13.8849 6.37567C13.8585 6.39087 13.8378 6.40474 13.8078 6.42067C13.7256 6.4642 13.6307 6.51012 13.5187 6.55786C12.4812 6.99145 10.7919 7.25 9 7.25C7.20813 7.25 5.5188 6.99145 4.48645 6.56006C4.37296 6.51168 4.27693 6.46526 4.19394 6.42136C4.1667 6.40694 4.14826 6.39444 4.12395 6.38061C4.07817 6.35457 4.0324 6.32857 3.99632 6.3049C4.01747 6.16987 4.0394 6.03519 4.06348 5.90161C4.84497 5.43359 6.68006 5 9 5Z" fill="#898989"/>
</svg>
