<svg xmlns="http://www.w3.org/2000/svg" xml:space="preserve" enable-background="new 0 0 24 24" viewBox="0 0 24 24" id="cash-out">
  <g id="_icons">
    <g>
      <path d="M4.10474,9.85339c-0.21106,2.6593-0.0506,5.323,0.51782,7.92786c0.36377,1.68018,1.51953,3.02832,3.02002,3.52051
			C9.07715,21.76514,10.54297,22,12,22s2.92285-0.23486,4.36133-0.69971c1.49658-0.49072,2.65234-1.83887,3.01562-3.51709
			C19.79053,15.8916,20,13.9458,20,12c0-0.71716-0.03821-1.43658-0.09497-2.15179C21.16675,9.20331,22,7.95764,22,6.58008V6.02002
			c0-0.92188-0.36865-1.81396-1.05273-2.52686C20.2749,2.8208,19.37793,2.40234,18.4292,2.31494
			c-4.20117-0.41797-8.6582-0.41797-12.85742,0C3.53564,2.51562,2,4.1084,2,6.02002v0.56006
			C2,7.50195,2.36865,8.39404,3.0625,9.1167C3.37158,9.4173,3.72626,9.66083,4.10474,9.85339z M17.42236,17.3584
			c-0.21387,0.98877-0.85938,1.771-1.68018,2.04004c-2.4707,0.79883-5.01758,0.79736-7.48047,0.00146
			c-0.82471-0.27051-1.47021-1.05273-1.68457-2.04346C6,14.7124,5.85449,12.00391,6.14404,9.30713
			C6.22754,8.53076,6.34668,7.76074,6.50146,7h10.99707c0.15332,0.75195,0.27344,1.52637,0.35742,2.30713
			C17.95166,10.1958,18,11.10156,18,12C18,13.80225,17.80566,15.60449,17.42236,17.3584z M4,6.02002
			C4,5.1416,4.76025,4.40479,5.76904,4.30518C7.8042,4.10254,9.90039,4,12,4s4.1958,0.10254,6.23877,0.30566
			c0.49219,0.04541,0.95166,0.25879,1.27979,0.58691C19.73828,5.12158,20,5.50293,20,6.02002v0.56006
			c0,0.35938-0.1333,0.70264-0.36328,0.98779c-0.07471-0.45312-0.16064-0.89893-0.25586-1.33203
			c-0.03955-0.19922-0.09229-0.38477-0.1582-0.5708C19.08105,5.2666,18.70361,5,18.28027,5H5.71973
			C5.29639,5,4.91895,5.2666,4.77734,5.66504C4.71143,5.85107,4.65869,6.03662,4.62354,6.21533
			C4.52539,6.66064,4.43848,7.11377,4.36279,7.57227C4.17725,7.33984,4,7.00586,4,6.58008V6.02002z"></path>
      <path d="M13.29297,13.29297L13,13.58594V10.1626c0-0.55225-0.44775-1-1-1s-1,0.44775-1,1v3.42334l-0.29297-0.29297
			c-0.39062-0.39062-1.02344-0.39062-1.41406,0s-0.39062,1.02344,0,1.41406l2,2C11.48828,16.90234,11.74414,17,12,17
			s0.51172-0.09766,0.70703-0.29297l2-2c0.39062-0.39062,0.39062-1.02344,0-1.41406S13.68359,12.90234,13.29297,13.29297z"></path>
    </g>
  </g>
</svg>
