<svg width="17" height="17" viewBox="0 0 17 17" fill="none" xmlns="http://www.w3.org/2000/svg">
<rect x="17" y="16.457" width="16.4571" height="16.4571" rx="8.22857" transform="rotate(180 17 16.457)" fill="white"/>
<path d="M8.77127 15.0857C12.5564 15.0857 15.6284 12.0137 15.6284 8.22855C15.6284 4.44341 12.5564 1.37141 8.77127 1.37141C4.98613 1.37141 1.91413 4.44341 1.91413 8.22855C1.91413 12.0137 4.98613 15.0857 8.77127 15.0857ZM4.97927 11.2937L10.273 5.99998H8.20213C7.92099 5.99998 7.68785 5.76684 7.68785 5.48569C7.68785 5.20455 7.92099 4.97141 8.20213 4.97141H11.5141C11.7953 4.97141 12.0284 5.20455 12.0284 5.48569V8.79769C12.0284 9.07884 11.7953 9.31198 11.5141 9.31198C11.233 9.31198 10.9998 9.07884 10.9998 8.79769V6.72684L5.70613 12.0206C5.60327 12.1234 5.47299 12.1714 5.3427 12.1714C5.21242 12.1714 5.08213 12.1234 4.97927 12.0206C4.78042 11.8217 4.78042 11.4925 4.97927 11.2937Z" fill="#C9252D"/>
</svg>
